<svg width="16" height="16" viewBox="0 0 16 16" fill="none" xmlns="http://www.w3.org/2000/svg">
<path fill-rule="evenodd" clip-rule="evenodd" d="M8.00016 1.33301C7.68251 1.33301 7.36878 1.40314 7.08136 1.53839L2.8647 3.5227C1.93006 3.96254 1.3335 4.90259 1.3335 5.93555V10.6663C1.3335 11.3315 1.71765 11.9369 2.31951 12.2201L7.08136 14.461C7.36878 14.5962 7.68251 14.6663 8.00016 14.6663C8.31782 14.6663 8.63155 14.5962 8.91897 14.461L13.6808 12.2201C14.2827 11.9369 14.6668 11.3315 14.6668 10.6663V5.93555C14.6668 4.90259 14.0703 3.96254 13.1356 3.5227L8.91897 1.53839C8.63155 1.40314 8.31782 1.33301 8.00016 1.33301ZM13.3335 9.58765L8.66683 7.25432V2.89333L12.5679 4.72913C13.0352 4.94904 13.3335 5.41907 13.3335 5.93555V9.58765ZM8.00016 8.4117L13.1564 10.9898C13.1426 10.9986 13.1281 11.0066 13.1131 11.0137L8.35124 13.2545C8.24142 13.3062 8.12154 13.333 8.00016 13.333C7.87879 13.333 7.75891 13.3062 7.64909 13.2545L2.88724 11.0137C2.87219 11.0066 2.85775 10.9986 2.84397 10.9898L8.00016 8.4117ZM7.3335 7.25432L2.66683 9.58765V5.93555C2.66683 5.41907 2.96511 4.94904 3.43243 4.72913L7.3335 2.89333V7.25432Z" fill="#3599FF"/>
</svg>
