<svg width="12" height="18" viewBox="0 0 12 18" fill="none" xmlns="http://www.w3.org/2000/svg">
<path d="M3.9161 0.458984C3.56972 0.458984 3.25945 0.673259 3.13678 0.997194L2.94545 1.50243C2.5353 1.46144 2.15741 1.42054 1.8515 1.38619C1.62282 1.36052 1.43484 1.33856 1.30427 1.32305L1.15364 1.30497L1.10249 1.29871C0.645745 1.24216 0.22898 1.56649 0.172419 2.02324C0.115858 2.47999 0.440274 2.89611 0.897022 2.95267L0.952682 2.95947L1.10766 2.97808C1.24128 2.99395 1.43284 3.01632 1.66553 3.04245C2.1305 3.09466 2.76158 3.16206 3.4237 3.22248C4.31685 3.30399 5.29587 3.37565 5.99944 3.37565C6.703 3.37565 7.68202 3.30399 8.57517 3.22248C9.23729 3.16206 9.86837 3.09466 10.3333 3.04245C10.566 3.01632 10.7576 2.99395 10.8912 2.97808L11.0462 2.95947L11.1017 2.95268C11.5585 2.89612 11.883 2.47999 11.8265 2.02324C11.7699 1.56649 11.3538 1.24208 10.897 1.29863L10.8452 1.30497L10.6946 1.32305C10.564 1.33856 10.376 1.36052 10.1474 1.38619C9.84146 1.42054 9.46357 1.46144 9.05342 1.50243L8.86209 0.997194C8.73942 0.673259 8.42915 0.458984 8.08277 0.458984H3.9161Z" fill="#D3DBE3"/>
<path d="M5.1661 8.79232C5.1661 8.33208 4.79301 7.95898 4.33277 7.95898C3.87253 7.95898 3.49944 8.33208 3.49944 8.79232V12.959C3.49944 13.4192 3.87253 13.7923 4.33277 13.7923C4.79301 13.7923 5.1661 13.4192 5.1661 12.959V8.79232Z" fill="#D3DBE3"/>
<path d="M7.6661 7.95898C8.12634 7.95898 8.49944 8.33208 8.49944 8.79232V12.959C8.49944 13.4192 8.12634 13.7923 7.6661 13.7923C7.20586 13.7923 6.83277 13.4192 6.83277 12.959V8.79232C6.83277 8.33208 7.20586 7.95898 7.6661 7.95898Z" fill="#D3DBE3"/>
<path fill-rule="evenodd" clip-rule="evenodd" d="M11.7575 5.70945C11.833 4.65214 10.9215 3.80451 9.88551 3.92423C8.82549 4.04674 7.18972 4.20898 5.99944 4.20898C4.80915 4.20898 3.17339 4.04674 2.11336 3.92423C1.07742 3.80451 0.165871 4.65214 0.241393 5.70945L0.955338 15.7047C1.00946 16.4624 1.57382 17.103 2.34831 17.2194C3.17881 17.3443 4.70272 17.5438 6.0004 17.5423C7.28213 17.5408 8.81225 17.3422 9.6464 17.2184C10.4222 17.1034 10.9894 16.4623 11.0437 15.7024L11.7575 5.70945ZM10.0769 5.57988C10.0797 5.57955 10.082 5.57974 10.082 5.57974L10.0842 5.58025C10.086 5.58089 10.0889 5.58241 10.0918 5.58513C10.0937 5.58693 10.0951 5.58913 10.0951 5.58913L10.095 5.5907L9.38204 15.5728C8.55647 15.6948 7.14154 15.8743 5.99847 15.8757C4.84301 15.877 3.43683 15.6972 2.61695 15.5744L1.90382 5.5907L1.90376 5.58913C1.90376 5.58913 1.90518 5.58693 1.90708 5.58513C1.90995 5.58241 1.91286 5.58089 1.91471 5.58025L1.91691 5.57974C1.91691 5.57974 1.91913 5.57955 1.92202 5.57988C2.98392 5.7026 4.70397 5.87565 5.99944 5.87565C7.2949 5.87565 9.01495 5.7026 10.0769 5.57988Z" fill="#D3DBE3"/>
</svg>
