<svg width="44" height="44" viewBox="0 0 44 44" fill="none" xmlns="http://www.w3.org/2000/svg">
<path d="M21.9993 18.3327C18.9618 18.3327 16.4993 20.7951 16.4993 23.8327C16.4993 26.8702 18.9618 29.3327 21.9993 29.3327C25.0369 29.3327 27.4993 26.8702 27.4993 23.8327C27.4993 20.7951 25.0369 18.3327 21.9993 18.3327Z" fill="white"/>
<path fill-rule="evenodd" clip-rule="evenodd" d="M18.7775 6.41602H25.2212C26.6799 6.41602 28.0788 6.99548 29.1103 8.02693L30.3678 9.28442C30.8944 9.8111 31.5226 10.2253 32.2142 10.502L36.8753 12.3664C38.9635 13.2017 40.3327 15.2241 40.3327 17.473V32.0827C40.3327 35.1202 37.8702 37.5827 34.8327 37.5827H9.16602C6.12845 37.5827 3.66602 35.1202 3.66602 32.0827V17.473C3.66602 15.2241 5.03525 13.2017 7.12337 12.3664L11.7845 10.502C12.4761 10.2253 13.1043 9.8111 13.6309 9.28442L14.8884 8.02693C15.9199 6.99548 17.3188 6.41602 18.7775 6.41602ZM12.8327 23.8327C12.8327 18.7701 16.9367 14.666 21.9993 14.666C27.062 14.666 31.166 18.7701 31.166 23.8327C31.166 28.8953 27.062 32.9993 21.9993 32.9993C16.9367 32.9993 12.8327 28.8953 12.8327 23.8327ZM29.0534 16.852C29.7884 17.0969 30.3651 17.6737 30.6101 18.4087C30.8594 19.1567 31.9175 19.1567 32.1668 18.4087C32.4118 17.6737 32.9886 17.0969 33.7236 16.852C34.4716 16.6026 34.4716 15.5446 33.7236 15.2952C32.9886 15.0502 32.4118 14.4735 32.1668 13.7385C31.9175 12.9905 30.8594 12.9905 30.6101 13.7385C30.3651 14.4735 29.7884 15.0502 29.0534 15.2952C28.3054 15.5446 28.3054 16.6026 29.0534 16.852Z" fill="white"/>
</svg>
