<svg width="16" height="16" viewBox="0 0 16 16" fill="none" xmlns="http://www.w3.org/2000/svg">
<path d="M11.7398 7.29398H13.6665C13.757 7.29398 13.8332 7.37013 13.8332 7.46065V10.954C13.8332 12.0213 13.4645 12.8124 12.9042 13.3387C12.3389 13.8696 11.5394 14.1673 10.6198 14.1673H5.37984C4.46028 14.1673 3.66077 13.8696 3.09547 13.3387C2.53512 12.8124 2.1665 12.0213 2.1665 10.954V5.04732C2.1665 3.97997 2.53512 3.18889 3.09547 2.66261C3.66077 2.13168 4.46028 1.83398 5.37984 1.83398H8.2065C8.29703 1.83398 8.37317 1.91013 8.37317 2.00065V3.92732C8.37317 5.78346 9.88369 7.29398 11.7398 7.29398Z" fill="#8E959C" stroke="#8E959C"/>
<path d="M11.6252 5.37368L11.6252 5.37365H11.62C10.8762 5.37365 10.2866 4.77776 10.2866 4.09365V1.93417C10.949 2.59745 11.8894 3.54636 12.7183 4.38288C13.0799 4.74775 13.4203 5.09124 13.7072 5.38032C12.9964 5.38028 12.2059 5.3798 11.6252 5.37368Z" fill="#8E959C" stroke="#8E959C"/>
</svg>
