<svg width="120" height="121" viewBox="0 0 120 121" fill="none" xmlns="http://www.w3.org/2000/svg">
<mask id="mask0_8163_301452" style="mask-type:luminance" maskUnits="userSpaceOnUse" x="0" y="0" width="120" height="121">
<path d="M120 60.5C120 27.3629 93.1371 0.5 60 0.5C26.8629 0.5 0 27.3629 0 60.5C0 93.6371 26.8629 120.5 60 120.5C93.1371 120.5 120 93.6371 120 60.5Z" fill="white"/>
</mask>
<g mask="url(#mask0_8163_301452)">
<path d="M120 60.5C120 27.3629 93.1371 0.5 60 0.5C26.8629 0.5 0 27.3629 0 60.5C0 93.6371 26.8629 120.5 60 120.5C93.1371 120.5 120 93.6371 120 60.5Z" fill="#E1FCF3"/>
<mask id="mask1_8163_301452" style="mask-type:luminance" maskUnits="userSpaceOnUse" x="-4" y="27" width="101" height="94">
<path d="M96.7247 27.4395H-3.83594V120.501H96.7247V27.4395Z" fill="white"/>
</mask>
<g mask="url(#mask1_8163_301452)">
<path d="M62.8061 101.05L0.717868 120.337C-1.98515 121.171 -4.50526 118.651 -3.67201 115.948L15.615 53.8594L62.8061 101.05Z" fill="#A684DA"/>
<path d="M64.7161 99.9506C69.2401 95.4266 62.1627 81.0144 48.9083 67.7601C35.654 54.5057 21.2419 47.4283 16.7179 51.9523C12.194 56.4762 19.2714 70.8884 32.5258 84.1427C45.78 97.397 60.1923 104.474 64.7161 99.9506Z" fill="#CBB2EB"/>
<path d="M53.9038 103.816L41.8925 107.555C39.2302 106.6 36.6085 105.462 34.0274 104.121C28.4181 101.214 23.0323 97.414 18.0125 92.8006C17.1996 92.0486 16.3053 91.1951 15.3501 90.2602C12.891 87.801 10.066 84.6712 7.2207 80.9316L9.67985 72.9648C14.1916 79.7529 19.0693 84.7932 22.4836 87.923C32.0763 96.723 42.6445 102.068 53.9038 103.816Z" fill="#CBB2EB"/>
<path d="M33.845 110.033L24.3742 112.979C18.9479 110.114 13.745 106.395 8.86743 101.923C8.05449 101.172 7.16024 100.318 6.20504 99.383C5.08725 98.2652 3.88816 97.0052 2.64844 95.6029L4.96531 88.1035C8.05447 91.9243 11.0217 94.9118 13.3386 97.0458C19.7811 102.94 26.6302 107.289 33.845 110.033Z" fill="#CBB2EB"/>
<path d="M16.6904 115.38L8.37811 117.961C5.41089 115.928 2.50462 113.611 -0.259365 111.071C-0.726806 110.644 -1.21457 110.197 -1.72266 109.689L0.492604 102.535C1.83395 103.937 3.11434 105.157 4.2118 106.173C8.21552 109.852 12.3818 112.92 16.6904 115.38Z" fill="#CBB2EB"/>
<path d="M32.3004 61.726L29.3535 58.7792C34.0279 54.1047 36.6903 48.1093 37.2796 40.935C37.7268 35.4884 36.7513 31.3627 36.7309 31.3221L40.7753 30.3262C40.816 30.5091 41.9134 35.021 41.446 41.118C40.816 49.2677 37.6455 56.381 32.3004 61.726Z" fill="#E35BAD"/>
<path d="M55.6734 88.0425L52.7266 85.0955C58.4781 79.3439 66.6278 76.4377 76.2815 76.7222C83.4556 76.9254 88.9023 78.7952 89.1259 78.8765L87.7642 82.799C87.7033 82.7786 82.602 81.0511 76.0375 80.8682C67.5221 80.6447 60.6527 83.0632 55.6734 88.0425Z" fill="#FE7122"/>
<path d="M41.2812 57.5156C42.7852 55.0158 44.7768 54.3655 46.2199 53.8777C47.4392 53.4712 48.1912 53.2274 48.9025 52.0486C49.6138 50.8699 49.4919 50.0975 49.2683 48.8172C49.0041 47.3132 48.6587 45.2605 50.1626 42.7607C51.6665 40.2609 53.6583 39.6106 55.1012 39.1229C56.3206 38.7163 57.0725 38.4726 57.7839 37.2937C58.4952 36.115 58.3733 35.3426 58.1497 34.0623C57.8855 32.5584 57.54 30.5057 59.0439 28.0059L62.6006 30.1399C61.8892 31.3186 62.0111 32.0909 62.2347 33.3713C62.499 34.8752 62.8444 36.928 61.3405 39.4278C59.8366 41.9275 57.8448 42.5779 56.4019 43.0656C55.1825 43.4721 54.4306 43.7159 53.7191 44.8948C53.0078 46.0735 53.1298 46.8457 53.3534 48.1262C53.6176 49.6301 53.963 51.6828 52.4591 54.1825C50.9552 56.6823 48.9635 57.3328 47.5205 57.8205C46.3012 58.227 45.5491 58.4708 44.8378 59.6496L41.2812 57.5156Z" fill="#FE7122"/>
<path d="M58.4366 68.674L56.4043 65.0564C59.0261 63.5729 61.1396 63.9996 62.6842 64.3248C64.0255 64.5889 64.8181 64.7515 66.1189 64.0402C67.3992 63.3289 67.6838 62.5566 68.1512 61.2559C68.6797 59.7723 69.4316 57.7603 72.0534 56.2766C74.675 54.793 76.7887 55.2199 78.3333 55.5246C79.6746 55.7889 80.4672 55.9515 81.768 55.2402C83.0483 54.5289 83.3329 53.7363 83.8003 52.4558C84.3288 50.9722 85.0807 48.9602 87.7024 47.4766L89.7348 51.0942C88.4545 51.8055 88.1699 52.5981 87.7024 53.8784C87.174 55.3622 86.4221 57.3741 83.8003 58.8577C81.1785 60.3414 79.065 59.9146 77.5204 59.6097C76.1791 59.3455 75.3865 59.1829 74.0857 59.8942C72.8054 60.6055 72.5208 61.3778 72.0534 62.6786C71.5249 64.1622 70.773 66.1742 68.1512 67.6579C65.5296 69.1415 63.4158 68.7146 61.8713 68.3895C60.53 68.1049 59.717 67.9423 58.4366 68.674Z" fill="#E35BAD"/>
<path d="M84.7957 68.939C85.9406 68.939 86.8686 68.0108 86.8686 66.8659C86.8686 65.721 85.9406 64.793 84.7957 64.793C83.6508 64.793 82.7227 65.721 82.7227 66.8659C82.7227 68.0108 83.6508 68.939 84.7957 68.939Z" fill="#CBB2EB"/>
<path d="M75.5301 93.2046C76.675 93.2046 77.603 92.2766 77.603 91.1317C77.603 89.9868 76.675 89.0586 75.5301 89.0586C74.3852 89.0586 73.457 89.9868 73.457 91.1317C73.457 92.2766 74.3852 93.2046 75.5301 93.2046Z" fill="#FFB992"/>
<path d="M94.6531 75.564C95.798 75.564 96.7261 74.6358 96.7261 73.4909C96.7261 72.346 95.798 71.418 94.6531 71.418C93.5082 71.418 92.5801 72.346 92.5801 73.4909C92.5801 74.6358 93.5082 75.564 94.6531 75.564Z" fill="#A684DA"/>
<path d="M77.7235 46.8862C78.8684 46.8862 79.7964 45.9581 79.7964 44.8133C79.7964 43.6684 78.8684 42.7402 77.7235 42.7402C76.5786 42.7402 75.6504 43.6684 75.6504 44.8133C75.6504 45.9581 76.5786 46.8862 77.7235 46.8862Z" fill="#CBB2EB"/>
<path d="M47.155 31.5835C48.2999 31.5835 49.228 30.6553 49.228 29.5104C49.228 28.3657 48.2999 27.4375 47.155 27.4375C46.0101 27.4375 45.082 28.3657 45.082 29.5104C45.082 30.6553 46.0101 31.5835 47.155 31.5835Z" fill="#E35BAD"/>
<path d="M61.5652 49.5308C62.7101 49.5308 63.6382 48.6027 63.6382 47.4578C63.6382 46.3129 62.7101 45.3848 61.5652 45.3848C60.4204 45.3848 59.4922 46.3129 59.4922 47.4578C59.4922 48.6027 60.4204 49.5308 61.5652 49.5308Z" fill="#FE7122"/>
<path d="M45.8151 75.2573C46.96 75.2573 47.8881 74.3293 47.8881 73.1844C47.8881 72.0395 46.96 71.1113 45.8151 71.1113C44.6702 71.1113 43.7422 72.0395 43.7422 73.1844C43.7422 74.3293 44.6702 75.2573 45.8151 75.2573Z" fill="#A684DA"/>
<path d="M24.0671 41.4409C25.212 41.4409 26.1401 40.5128 26.1401 39.3679C26.1401 38.223 25.212 37.2949 24.0671 37.2949C22.9222 37.2949 21.9941 38.223 21.9941 39.3679C21.9941 40.5128 22.9222 41.4409 24.0671 41.4409Z" fill="#F7C9E3"/>
</g>
</g>
</svg>
