<svg width="16" height="16" viewBox="0 0 16 16" fill="none" xmlns="http://www.w3.org/2000/svg">
<path fill-rule="evenodd" clip-rule="evenodd" d="M8 15.5C12.1421 15.5 15.5 12.1421 15.5 8C15.5 3.85786 12.1421 0.5 8 0.5C3.85786 0.5 0.5 3.85786 0.5 8C0.5 12.1421 3.85786 15.5 8 15.5ZM11.0628 6.94788C11.4022 6.63703 11.4254 6.1099 11.1145 5.7705C10.8037 5.4311 10.2766 5.40795 9.93717 5.71879L6.86043 8.53665L6.06284 7.80615C5.72343 7.49531 5.1963 7.51846 4.88546 7.85786C4.57461 8.19726 4.59776 8.72439 4.93716 9.03524L6.2976 10.2812C6.61612 10.5729 7.10475 10.5729 7.42327 10.2812L11.0628 6.94788Z" fill="#0F973D"/>
</svg>
