<svg width="16" height="16" viewBox="0 0 16 16" fill="none" xmlns="http://www.w3.org/2000/svg">
<path d="M13.9972 3.98487L13.9992 3.98507C14.0007 3.98521 14.0015 3.98542 14.0017 3.9855L14.0023 3.98573C14.0025 3.98588 14.0033 3.98632 14.0042 3.98732H14.0042H14.0041H14.004H14.0038H14.0037H14.0036H14.0035H14.0034H14.0033H14.0032H14.003H14.0029H14.0028H14.0027H14.0026H14.0025H14.0024H14.0023H14.0021H14.002H14.0019H14.0018H14.0017H14.0016H14.0015H14.0014H14.0013H14.0011H14.001H14.0009H14.0008H14.0007H14.0006H14.0005H14.0004H14.0003H14.0002H14H13.9999H13.9998H13.9997H13.9996H13.9995H13.9994H13.9993H13.9992H13.9991H13.999H13.9989H13.9987H13.9986H13.9985H13.9984H13.9983H13.9982H13.9981H13.998H13.9979H13.9978H13.9977H13.9976H13.9975H13.9974H13.9972H13.9971H13.997H13.9969H13.9968H13.9967H13.9966H13.9965H13.9964H13.9963H13.9962H13.9961H13.996H13.9959H13.9958H13.9957H13.9956H13.9954H13.9953H13.9952H13.9951H13.995H13.9949H13.9948H13.9947H13.9946H13.9945H13.9944H13.9943H13.9942H13.9941H13.994H13.9939H13.9938H13.9937H13.9936H13.9935H13.9934H13.9933H13.9932H13.9931H13.993H13.9929H13.9928H13.9927H13.9925H13.9924H13.9923H13.9922H13.9921H13.992H13.9919H13.9918H13.9917H13.9916H13.9915H13.9914H13.9913H13.9912H13.9911H13.991H13.9909H13.9908H13.9907H13.9906H13.9905H13.9904H13.9903H13.9902H13.9901H13.99H13.9899H13.9898H13.9897H13.9896H13.9895H13.9894H13.9893H13.9892H13.9891H13.989H13.9889H13.9888H13.9887H13.9886H13.9885H13.9884H13.9883H13.9882H13.9881H13.988H13.9879H13.9878H13.9877H13.9876H13.9875H13.9874H13.9873H13.9872H13.9871H13.987H13.9869H13.9868H13.9867H13.9866H13.9865H13.9864H13.9863H13.9862H13.9861H13.986H13.9859H13.9858H13.9857H13.9856H13.9855H13.9854H13.9853H13.9852H13.9851H13.985H13.9849H13.9848H13.9847H13.9846H13.9845H13.9844H13.9843H13.9842H13.9841H13.9841H13.984H13.9839H13.9838H13.9837H13.9836H13.9835H13.9834H13.9833H13.9832H13.9831H13.983H13.9829H13.9828H13.9827H13.9826H13.9825H13.9824H13.9823H13.9822H13.9821H13.982H13.9819H13.9818H13.9817H13.9816H13.9815H13.9814H13.9813H13.9812H13.9811H13.981H13.9809H13.9808H13.9807H13.9806H13.9805H13.9804H13.9803H13.9802H13.9801H13.98H13.9799H13.9798H13.9797H13.9796H13.9796H13.9795H13.9794H13.9793H13.9792H13.9791H13.979H13.9789H13.9788H13.9787H13.9786H13.9785H13.9784H13.9783H13.9782C13.4431 3.93396 12.9079 3.8856 12.3728 3.84314C12.9151 3.88415 13.4562 3.93111 13.9972 3.98487ZM10.3199 3.71115C8.70003 3.63286 7.08097 3.61942 5.46474 3.69622L5.6023 3.68735L5.66668 3.29493L5.80661 2.44203C5.80662 2.44193 5.80664 2.44184 5.80666 2.44174C5.86329 2.09845 5.91456 1.85197 6.06233 1.66991C6.18241 1.52196 6.44063 1.33398 7.11994 1.33398H8.86661C9.54271 1.33398 9.80351 1.52789 9.92628 1.68209C10.0768 1.87119 10.1267 2.12225 10.1798 2.44778L10.1798 2.44778L10.1803 2.45075L10.3199 3.27599V3.71115Z" fill="#8E959C" stroke="#8E959C"/>
<path d="M12.2135 5.66602C12.3016 5.66602 12.3899 5.70194 12.4558 5.7685C12.5179 5.83804 12.5529 5.93154 12.5476 6.03074C12.5476 6.03103 12.5476 6.03132 12.5476 6.03161L12.1346 12.8596C12.0959 13.3975 12.052 13.8138 11.8281 14.1202C11.6355 14.3837 11.2183 14.6727 10.1402 14.6727H5.86016C4.78298 14.6727 4.36541 14.3826 4.17247 14.1181C3.9482 13.8106 3.90445 13.3938 3.86573 12.8595L3.45268 6.02416C3.45267 6.02395 3.45265 6.02374 3.45264 6.02353C3.44757 5.93158 3.4823 5.8361 3.54812 5.76454C3.60071 5.70739 3.69077 5.66602 3.78683 5.66602H12.2135ZM6.88683 12.3327H9.10682C9.6563 12.3327 10.1068 11.8822 10.1068 11.3327C10.1068 10.7832 9.6563 10.3327 9.10682 10.3327H6.88683C6.33735 10.3327 5.88683 10.7832 5.88683 11.3327C5.88683 11.8822 6.33735 12.3327 6.88683 12.3327ZM6.33349 9.66602H9.66683C10.2163 9.66602 10.6668 9.21549 10.6668 8.66602C10.6668 8.11654 10.2163 7.66602 9.66683 7.66602H6.33349C5.78402 7.66602 5.33349 8.11654 5.33349 8.66602C5.33349 9.21549 5.78402 9.66602 6.33349 9.66602Z" fill="#8E959C" stroke="#8E959C"/>
</svg>
