<svg width="24" height="24" viewBox="0 0 24 24" fill="none" xmlns="http://www.w3.org/2000/svg">
<path fill-rule="evenodd" clip-rule="evenodd" d="M12 2C11.5235 2 11.0529 2.1052 10.6218 2.30808L4.29681 5.28454C2.89484 5.94429 2 7.35437 2 8.90382V16C2 16.9978 2.57623 17.9058 3.47902 18.3306L10.6218 21.6919C11.0529 21.8948 11.5235 22 12 22C12.4765 22 12.9471 21.8948 13.3782 21.6919L20.521 18.3306C21.4238 17.9058 22 16.9978 22 16V8.90382C22 7.35437 21.1052 5.94429 19.7032 5.28454L13.3782 2.30808C12.9471 2.1052 12.4765 2 12 2ZM20 14.382L13 10.882V4.34049L18.8516 7.09418C19.5526 7.42405 20 8.12909 20 8.90382V14.382ZM12 12.618L19.7343 16.4852C19.7136 16.4984 19.692 16.5104 19.6694 16.521L12.5266 19.8823C12.3619 19.9598 12.1821 20 12 20C11.8179 20 11.6381 19.9598 11.4734 19.8823L4.33062 16.521C4.30804 16.5104 4.28638 16.4984 4.26571 16.4852L12 12.618ZM11 10.882L4 14.382V8.90382C4 8.12909 4.44742 7.42405 5.14841 7.09418L11 4.34049V10.882Z" fill="#3599FF"/>
</svg>
