<svg width="16" height="16" viewBox="0 0 16 16" fill="none" xmlns="http://www.w3.org/2000/svg">
<path d="M14.16 5.20594V5.20732V10.794C14.16 11.9079 13.8299 12.737 13.2798 13.2871C12.7297 13.8372 11.9006 14.1673 10.7867 14.1673H5.20671C4.09282 14.1673 3.26388 13.8372 2.71382 13.2865C2.16368 12.7357 1.83337 11.9049 1.83337 10.7873V5.20732C1.83337 4.09342 2.16347 3.26433 2.71359 2.7142C3.26372 2.16408 4.09281 1.83398 5.20671 1.83398H10.7934C11.9074 1.83398 12.7363 2.16412 13.2854 2.71398C13.8345 3.26374 14.1631 4.09236 14.16 5.20594ZM11.2152 8.48977L11.178 8.47736C11.2286 8.44777 11.2766 8.41124 11.3203 8.36754L11.3222 8.36562L11.9336 7.74754C11.9339 7.74722 11.9342 7.7469 11.9346 7.74657C12.4895 7.19133 12.8308 6.59452 12.84 5.93426L12.84 5.93426V5.92732C12.84 5.23968 12.4998 4.63333 11.9403 4.07376C11.3933 3.52684 10.7846 3.17825 10.1101 3.17482C9.43425 3.17139 8.81856 3.51502 8.25982 4.07376L7.6479 4.68568C7.59216 4.73768 7.54815 4.79619 7.51484 4.85832L7.50576 4.83449L6.95982 5.38043L3.98914 8.35111C3.83938 8.49688 3.71524 8.68425 3.62383 8.86504C3.53155 9.04757 3.4551 9.25805 3.42531 9.46159L3.42503 9.46356L3.19197 11.1016C3.11963 11.5849 3.24388 12.0716 3.59315 12.4209C3.88066 12.7084 4.26821 12.8407 4.65337 12.8407C4.74159 12.8407 4.82548 12.8313 4.88096 12.8251L4.88859 12.8243L4.89621 12.8234L4.9038 12.8223L6.5438 12.589L6.54381 12.589L6.54754 12.5885C6.75009 12.5581 6.96086 12.4787 7.1408 12.3872C7.32084 12.2957 7.50841 12.1725 7.6529 12.0282C7.65313 12.028 7.65336 12.0278 7.65359 12.0275L10.6391 9.06206L11.2152 8.48977Z" fill="#8E959C" stroke="#8E959C"/>
</svg>
