<svg width="16" height="16" viewBox="0 0 16 16" fill="none" xmlns="http://www.w3.org/2000/svg">
<path d="M8.80786 11.5123L8.82742 11.4947L8.84502 11.4751C8.93151 11.379 9.01639 11.2629 9.07762 11.1064C9.13077 10.9768 9.16671 10.8271 9.16671 10.6673C9.16671 10.5048 9.12956 10.3528 9.07491 10.2217C9.0191 10.0877 8.94146 9.96666 8.84502 9.8595L8.82742 9.83994L8.80786 9.82234C8.7007 9.7259 8.57962 9.64825 8.44568 9.59245C8.43403 9.58759 8.4223 9.58294 8.41051 9.57848C8.75713 9.4209 9.00004 9.07079 9.00004 8.66732V5.33398C9.00004 4.78451 8.54952 4.33398 8.00004 4.33398C7.45056 4.33398 7.00004 4.78451 7.00004 5.33398V8.66732C7.00004 9.07079 7.24295 9.4209 7.58957 9.57848C7.57778 9.58294 7.56606 9.58759 7.5544 9.59245C7.42046 9.64825 7.29938 9.7259 7.19222 9.82234L7.17266 9.83994L7.15506 9.8595C7.05862 9.96666 6.98098 10.0877 6.92517 10.2217C6.87053 10.3528 6.83337 10.5048 6.83337 10.6673C6.83337 10.8271 6.86931 10.9768 6.92247 11.1064C6.9837 11.2629 7.06857 11.379 7.15506 11.4751L7.17266 11.4947L7.19222 11.5123C7.29938 11.6087 7.42046 11.6864 7.5544 11.7422C7.68555 11.7968 7.83753 11.834 8.00004 11.834C8.16256 11.834 8.31454 11.7968 8.44568 11.7422C8.57962 11.6864 8.7007 11.6087 8.80786 11.5123ZM1.83337 8.00065C1.83337 4.60346 4.60285 1.83398 8.00004 1.83398C11.3972 1.83398 14.1667 4.60346 14.1667 8.00065C14.1667 11.3978 11.3972 14.1673 8.00004 14.1673C4.60285 14.1673 1.83337 11.3978 1.83337 8.00065Z" fill="#8E959C" stroke="#8E959C"/>
</svg>
