<svg width="16" height="16" viewBox="0 0 16 16" fill="none" xmlns="http://www.w3.org/2000/svg">
<path d="M8.58666 10.4792C8.58666 10.8033 8.324 11.0659 8 11.0659C7.67599 11.0659 7.41333 10.8033 7.41333 10.4792C7.41333 10.1552 7.67599 9.89258 8 9.89258C8.324 9.89258 8.58666 10.1552 8.58666 10.4792Z" fill="#8E959C" stroke="#8E959C"/>
<path d="M11.2534 6.80065H11.7289L12.1247 6.85012C12.985 6.95766 13.4426 7.21384 13.7161 7.60756C14.0112 8.03241 14.1667 8.71853 14.1667 9.86065V11.1007C14.1667 12.4497 13.9529 13.1574 13.5548 13.5554C13.1568 13.9535 12.4491 14.1673 11.1 14.1673H4.90004C3.55097 14.1673 2.8433 13.9535 2.44526 13.5554C2.04722 13.1574 1.83337 12.4497 1.83337 11.1007V9.86065C1.83337 8.71853 1.98893 8.03241 2.28403 7.60756C2.55751 7.21384 3.01507 6.95766 3.87539 6.85012L4.31337 6.79538V6.79398H4.40004V6.80065H4.90004H11.1H11.1004H11.1007H11.101H11.1013H11.1016H11.1019H11.1022H11.1025H11.1028H11.1032H11.1035H11.1038H11.1041H11.1044H11.1047H11.105H11.1053H11.1056H11.106H11.1063H11.1066H11.1069H11.1072H11.1075H11.1078H11.1081H11.1084H11.1087H11.109H11.1093H11.1097H11.11H11.1103H11.1106H11.1109H11.1112H11.1115H11.1118H11.1121H11.1124H11.1127H11.113H11.1133H11.1137H11.114H11.1143H11.1146H11.1149H11.1152H11.1155H11.1158H11.1161H11.1164H11.1167H11.117H11.1173H11.1176H11.1179H11.1182H11.1185H11.1188H11.1191H11.1194H11.1198H11.1201H11.1204H11.1207H11.121H11.1213H11.1216H11.1219H11.1222H11.1225H11.1228H11.1231H11.1234H11.1237H11.124H11.1243H11.1246H11.1249H11.1252H11.1255H11.1258H11.1261H11.1264H11.1267H11.127H11.1273H11.1276H11.1279H11.1282H11.1285H11.1288H11.1291H11.1294H11.1297H11.13H11.1303H11.1306H11.1309H11.1312H11.1315H11.1318H11.1321H11.1324H11.1327H11.133H11.1333H11.1336H11.1339H11.1342H11.1345H11.1348H11.1351H11.1354H11.1357H11.136H11.1363H11.1366H11.1369H11.1372H11.1375H11.1378H11.1381H11.1384H11.1387H11.139H11.1393H11.1396H11.1399H11.1402H11.1405H11.1408H11.1411H11.1414H11.1417H11.142H11.1423H11.1426H11.1429H11.1432H11.1435H11.1438H11.1441H11.1443H11.1446H11.1449H11.1452H11.1455H11.1458H11.1461H11.1464H11.1467H11.147H11.1473H11.1476H11.1479H11.1482H11.1485H11.1488H11.1491H11.1494H11.1497H11.15H11.1503H11.1506H11.1509H11.1512H11.1514H11.1517H11.152H11.1523H11.1526H11.1529H11.1532H11.1535H11.1538H11.1541H11.1544H11.1547H11.155H11.1553H11.1556H11.1559H11.1562H11.1565H11.1568H11.157H11.1573H11.1576H11.1579H11.1582H11.1585H11.1588H11.1591H11.1594H11.1597H11.16H11.1603H11.1606H11.1609H11.1612H11.1615H11.1618H11.162H11.1623H11.1626H11.1629H11.1632H11.1635H11.1638H11.1641H11.1644H11.1647H11.165H11.1653H11.1656H11.1659H11.1662H11.1664H11.1667H11.167H11.1673H11.1676H11.1679H11.1682H11.1685H11.1688H11.1691H11.1694H11.1697H11.17H11.1703H11.1706H11.1708H11.1711H11.1714H11.1717H11.172H11.1723H11.1726H11.1729H11.1732H11.1735H11.1738H11.1741H11.1744H11.1747H11.1749H11.1752H11.1755H11.1758H11.1761H11.1764H11.1767H11.177H11.1773H11.1776H11.1779H11.1782H11.1785H11.1788H11.1791H11.1793H11.1796H11.1799H11.1802H11.1805H11.1808H11.1811H11.1814H11.1817H11.182H11.1823H11.1826H11.1829H11.1832H11.1834H11.1837H11.184H11.1843H11.1846H11.1849H11.1852H11.1855H11.1858H11.1861H11.1864H11.1867H11.187H11.1873H11.1876H11.1878H11.1881H11.1884H11.1887H11.189H11.1893H11.1896H11.1899H11.1902H11.1905H11.1908H11.1911H11.1914H11.1917H11.192H11.1922H11.1925H11.1928H11.1931H11.1934H11.1937H11.194H11.1943H11.1946H11.1949H11.1952H11.1955H11.1958H11.1961H11.1964H11.1967H11.197H11.1972H11.1975H11.1978H11.1981H11.1984H11.1987H11.199H11.1993H11.1996H11.1999H11.2002H11.2005H11.2008H11.2011H11.2014H11.2017H11.202H11.2023H11.2026H11.2029H11.2031H11.2034H11.2037H11.204H11.2043H11.2046H11.2049H11.2052H11.2055H11.2058H11.2061H11.2064H11.2067H11.207H11.2073H11.2076H11.2079H11.2082H11.2085H11.2088H11.2091H11.2094H11.2097H11.21H11.2103H11.2106H11.2108H11.2111H11.2114H11.2117H11.212H11.2123H11.2126H11.2129H11.2132H11.2135H11.2138H11.2141H11.2144H11.2147H11.215H11.2153H11.2156H11.2159H11.2162H11.2165H11.2168H11.2171H11.2174H11.2177H11.218H11.2183H11.2186H11.2189H11.2192H11.2195H11.2198H11.2201H11.2204H11.2207H11.221H11.2213H11.2216H11.2219H11.2222H11.2225H11.2228H11.2231H11.2234H11.2237H11.224H11.2243H11.2246H11.2249H11.2252H11.2255H11.2258H11.2261H11.2264H11.2267H11.227H11.2273H11.2276H11.2279H11.2282H11.2285H11.2288H11.2291H11.2294H11.2297H11.23H11.2303H11.2306H11.2309H11.2312H11.2315H11.2318H11.2321H11.2324H11.2327H11.2331H11.2334H11.2337H11.234H11.2343H11.2346H11.2349H11.2352H11.2355H11.2358H11.2361H11.2364H11.2367H11.237H11.2373H11.2376H11.2379H11.2382H11.2385H11.2388H11.2392H11.2395H11.2398H11.2401H11.2404H11.2407H11.241H11.2413H11.2416H11.2419H11.2422H11.2425H11.2428H11.2431H11.2434H11.2438H11.2441H11.2444H11.2447H11.245H11.2453H11.2456H11.2459H11.2462H11.2465H11.2468H11.2472H11.2475H11.2478H11.2481H11.2484H11.2487H11.249H11.2493H11.2496H11.2499H11.2503H11.2506H11.2509H11.2512H11.2515H11.2518H11.2521H11.2524H11.2527H11.2531H11.2534ZM5.48671 10.4807C5.48671 11.8624 6.60949 12.994 8.00004 12.994C9.38952 12.994 10.5134 11.8701 10.5134 10.4807C10.5134 9.09784 9.38285 7.96732 8.00004 7.96732C6.61831 7.96732 5.48671 9.0901 5.48671 10.4807Z" fill="#8E959C" stroke="#8E959C"/>
</svg>
