<svg width="16" height="17" viewBox="0 0 16 17" fill="none" xmlns="http://www.w3.org/2000/svg">
<path d="M14.6663 13.1667V15.1667H1.33301V13.1667C1.33301 12.8 1.63301 12.5 1.99967 12.5H13.9997C14.3663 12.5 14.6663 12.8 14.6663 13.1667Z" fill="#8E959C" stroke="#8E959C" stroke-width="1.5" stroke-miterlimit="10" stroke-linecap="round" stroke-linejoin="round"/>
<path d="M4.66634 7.83203H3.33301V12.4987H4.66634V7.83203Z" fill="#8E959C"/>
<path d="M7.33333 7.83203H6V12.4987H7.33333V7.83203Z" fill="#8E959C"/>
<path d="M10.0003 7.83203H8.66699V12.4987H10.0003V7.83203Z" fill="#8E959C"/>
<path d="M12.6663 7.83203H11.333V12.4987H12.6663V7.83203Z" fill="#8E959C"/>
<path d="M15.3337 15.668H0.666992C0.393659 15.668 0.166992 15.4413 0.166992 15.168C0.166992 14.8946 0.393659 14.668 0.666992 14.668H15.3337C15.607 14.668 15.8337 14.8946 15.8337 15.168C15.8337 15.4413 15.607 15.668 15.3337 15.668Z" fill="#8E959C"/>
<path d="M14.2463 4.33453L8.24634 1.93453C8.11301 1.8812 7.88634 1.8812 7.75301 1.93453L1.75301 4.33453C1.51967 4.42786 1.33301 4.7012 1.33301 4.95453V7.16786C1.33301 7.53453 1.63301 7.83453 1.99967 7.83453H13.9997C14.3663 7.83453 14.6663 7.53453 14.6663 7.16786V4.95453C14.6663 4.7012 14.4797 4.42786 14.2463 4.33453ZM7.99967 6.16786C7.44634 6.16786 6.99967 5.7212 6.99967 5.16786C6.99967 4.61453 7.44634 4.16786 7.99967 4.16786C8.55301 4.16786 8.99967 4.61453 8.99967 5.16786C8.99967 5.7212 8.55301 6.16786 7.99967 6.16786Z" fill="#8E959C"/>
</svg>
