<svg width="14" height="14" viewBox="0 0 14 14" fill="none" xmlns="http://www.w3.org/2000/svg">
<path d="M2.33301 10.6667C2.33301 10.2985 2.63148 10 2.99967 10H7.66634C8.03453 10 8.33301 10.2985 8.33301 10.6667C8.33301 11.0349 8.03453 11.3333 7.66634 11.3333H2.99967C2.63148 11.3333 2.33301 11.0349 2.33301 10.6667Z" fill="#3599FF"/>
<path d="M9.66634 10C9.29815 10 8.99967 10.2985 8.99967 10.6667C8.99967 11.0349 9.29815 11.3333 9.66634 11.3333H10.9997C11.3679 11.3333 11.6663 11.0349 11.6663 10.6667C11.6663 10.2985 11.3679 10 10.9997 10H9.66634Z" fill="#3599FF"/>
<path fill-rule="evenodd" clip-rule="evenodd" d="M4.33301 0C4.7012 0 4.99967 0.298477 4.99967 0.666667V1.33333H8.99967V0.666667C8.99967 0.298477 9.29815 0 9.66634 0C10.0345 0 10.333 0.298477 10.333 0.666667V1.33333H10.9997C12.4724 1.33333 13.6663 2.52724 13.6663 4V11.3333C13.6663 12.8061 12.4724 14 10.9997 14H2.99967C1.52692 14 0.333008 12.8061 0.333008 11.3333V4C0.333008 2.52724 1.52692 1.33333 2.99967 1.33333H3.66634V0.666667C3.66634 0.298477 3.96482 0 4.33301 0ZM8.99967 2.66667C8.99967 3.03486 9.29815 3.33333 9.66634 3.33333C10.0345 3.33333 10.333 3.03486 10.333 2.66667H10.9997C11.7361 2.66667 12.333 3.26362 12.333 4V4.33333H1.66634V4C1.66634 3.26362 2.26329 2.66667 2.99967 2.66667H3.66634C3.66634 3.03486 3.96482 3.33333 4.33301 3.33333C4.7012 3.33333 4.99967 3.03486 4.99967 2.66667H8.99967ZM12.333 5.66667H1.66634V11.3333C1.66634 12.0697 2.26329 12.6667 2.99967 12.6667H10.9997C11.7361 12.6667 12.333 12.0697 12.333 11.3333V5.66667Z" fill="#3599FF"/>
</svg>
