<svg width="20" height="20" viewBox="0 0 20 20" fill="#015AB5" xmlns="http://www.w3.org/2000/svg">
<path d="M13.094 13.9789L6.0229 6.90786C5.78131 6.66626 5.78131 6.26557 6.0229 6.02397C6.2645 5.78238 6.66519 5.78238 6.90679 6.02397L13.9779 13.095C14.2194 13.3366 14.2194 13.7373 13.9779 13.9789C13.7363 14.2205 13.3356 14.2205 13.094 13.9789Z" fill="#015AB5"/>
<path d="M6.02215 13.9789C5.78055 13.7373 5.78055 13.3366 6.02215 13.095L13.0932 6.02397C13.3348 5.78238 13.7355 5.78238 13.9771 6.02397C14.2187 6.26557 14.2187 6.66626 13.9771 6.90786L6.90603 13.9789C6.66444 14.2205 6.26374 14.2205 6.02215 13.9789Z" fill="#015AB5"/>
</svg>
