<svg width="16" height="17" viewBox="0 0 16 17" fill="none" xmlns="http://www.w3.org/2000/svg">
<path d="M14.6663 5.53229C14.6663 5.97229 14.3063 6.33229 13.8663 6.33229H2.13301C1.69301 6.33229 1.33301 5.97229 1.33301 5.53229V5.52562C1.33301 3.99896 2.56634 2.76562 4.09301 2.76562H11.8997C13.4263 2.76562 14.6663 4.00563 14.6663 5.53229Z" fill="white"/>
<path d="M1.33301 8.13203V11.472C1.33301 12.9987 2.56634 14.232 4.09301 14.232H11.8997C13.4263 14.232 14.6663 12.992 14.6663 11.4654V8.13203C14.6663 7.69203 14.3063 7.33203 13.8663 7.33203H2.13301C1.69301 7.33203 1.33301 7.69203 1.33301 8.13203ZM5.33301 11.9987H3.99967C3.72634 11.9987 3.49967 11.772 3.49967 11.4987C3.49967 11.2254 3.72634 10.9987 3.99967 10.9987H5.33301C5.60634 10.9987 5.83301 11.2254 5.83301 11.4987C5.83301 11.772 5.60634 11.9987 5.33301 11.9987ZM9.66634 11.9987H6.99967C6.72634 11.9987 6.49967 11.772 6.49967 11.4987C6.49967 11.2254 6.72634 10.9987 6.99967 10.9987H9.66634C9.93967 10.9987 10.1663 11.2254 10.1663 11.4987C10.1663 11.772 9.93967 11.9987 9.66634 11.9987Z" fill="white"/>
</svg>
