<svg width="16" height="16" viewBox="0 0 16 16" fill="none" xmlns="http://www.w3.org/2000/svg">
<path d="M10.7934 1.33203H5.20671C2.78004 1.33203 1.33337 2.7787 1.33337 5.20536V10.7854C1.33337 13.2187 2.78004 14.6654 5.20671 14.6654H10.7867C13.2134 14.6654 14.66 13.2187 14.66 10.792V5.20536C14.6667 2.7787 13.22 1.33203 10.7934 1.33203ZM10.24 9.53203C10.4334 9.72536 10.4334 10.0454 10.24 10.2387C10.14 10.3387 10.0134 10.3854 9.88671 10.3854C9.76004 10.3854 9.63337 10.3387 9.53337 10.2387L8.00004 8.70537L6.46671 10.2387C6.36671 10.3387 6.24004 10.3854 6.11337 10.3854C5.98671 10.3854 5.86004 10.3387 5.76004 10.2387C5.56671 10.0454 5.56671 9.72536 5.76004 9.53203L7.29337 7.9987L5.76004 6.46536C5.56671 6.27203 5.56671 5.95203 5.76004 5.7587C5.95337 5.56536 6.27337 5.56536 6.46671 5.7587L8.00004 7.29203L9.53337 5.7587C9.72671 5.56536 10.0467 5.56536 10.24 5.7587C10.4334 5.95203 10.4334 6.27203 10.24 6.46536L8.70671 7.9987L10.24 9.53203Z" fill="#D42620"/>
</svg>
