<svg width="24" height="24" viewBox="0 0 24 24" fill="#01356B" xmlns="http://www.w3.org/2000/svg">
<path d="M20.8286 2.96042C21.1548 2.84139 21.5 3.0829 21.5 3.43012V15.5713C21.5 15.9185 21.1548 16.16 20.8286 16.041L13.7308 13.4509V5.5505L20.8286 2.96042Z" fill="#01356B"/>
<path d="M12.7308 5.74133V13.2601L5.80511 12.7185C4.50395 12.6168 3.5 11.5313 3.5 10.2261V8.77528C3.5 7.47016 4.50395 6.38463 5.80511 6.28289L12.7308 5.74133Z" fill="#01356B"/>
<path d="M8.29464 20.1881L7.56613 13.8593L10.5522 14.0928L11.2388 19.8428C11.3441 20.7248 10.6553 21.5007 9.76707 21.5007C9.01408 21.5007 8.38075 20.9361 8.29464 20.1881Z" fill="#01356B"/>
</svg>
