<svg width="20" height="20" viewBox="0 0 20 20" fill="#01356B" xmlns="http://www.w3.org/2000/svg">
<path d="M16.1163 12.0763L15.283 10.693C15.108 10.3846 14.9496 9.8013 14.9496 9.45964V7.3513C14.9496 5.39297 13.7996 3.7013 12.1413 2.90964C11.708 2.14297 10.908 1.66797 9.99129 1.66797C9.08296 1.66797 8.26629 2.15964 7.83296 2.93464C6.20796 3.74297 5.08296 5.41797 5.08296 7.3513V9.45964C5.08296 9.8013 4.92463 10.3846 4.74963 10.6846L3.90796 12.0763C3.57463 12.6346 3.49963 13.2513 3.70796 13.818C3.90796 14.3763 4.38296 14.8096 4.99963 15.018C6.61629 15.568 8.31629 15.8346 10.0163 15.8346C11.7163 15.8346 13.4163 15.568 15.033 15.0263C15.6163 14.8346 16.0663 14.393 16.283 13.818C16.4996 13.243 16.4413 12.6096 16.1163 12.0763Z" fill="#01356B"/>
<path d="M12.3587 16.6763C12.0087 17.643 11.0837 18.3346 10.0004 18.3346C9.34206 18.3346 8.69206 18.068 8.23372 17.593C7.96706 17.343 7.76706 17.0096 7.65039 16.668C7.75872 16.6846 7.86706 16.693 7.98372 16.7096C8.17539 16.7346 8.37539 16.7596 8.57539 16.7763C9.05039 16.818 9.53372 16.843 10.0171 16.843C10.4921 16.843 10.9671 16.818 11.4337 16.7763C11.6087 16.7596 11.7837 16.7513 11.9504 16.7263C12.0837 16.7096 12.2171 16.693 12.3587 16.6763Z" fill="#01356B"/>
</svg>
