<svg width="109" height="109" viewBox="0 0 109 109" fill="none" xmlns="http://www.w3.org/2000/svg">
<path d="M2.94595 0H0V2.94595H2.94595V0Z" fill="black"/>
<path d="M5.89189 0H2.94595V2.94595H5.89189V0Z" fill="black"/>
<path d="M8.83784 0H5.89189V2.94595H8.83784V0Z" fill="black"/>
<path d="M11.7838 0H8.83784V2.94595H11.7838V0Z" fill="black"/>
<path d="M14.7297 0H11.7838V2.94595H14.7297V0Z" fill="black"/>
<path d="M17.6757 0H14.7297V2.94595H17.6757V0Z" fill="black"/>
<path d="M20.6216 0H17.6757V2.94595H20.6216V0Z" fill="black"/>
<path d="M26.5135 0H23.5676V2.94595H26.5135V0Z" fill="black"/>
<path d="M29.4595 0H26.5135V2.94595H29.4595V0Z" fill="black"/>
<path d="M44.1892 0H41.2432V2.94595H44.1892V0Z" fill="black"/>
<path d="M53.027 0H50.0811V2.94595H53.027V0Z" fill="black"/>
<path d="M58.9189 0H55.973V2.94595H58.9189V0Z" fill="black"/>
<path d="M61.8649 0H58.9189V2.94595H61.8649V0Z" fill="black"/>
<path d="M64.8108 0H61.8649V2.94595H64.8108V0Z" fill="black"/>
<path d="M67.7568 0H64.8108V2.94595H67.7568V0Z" fill="black"/>
<path d="M76.5946 0H73.6487V2.94595H76.5946V0Z" fill="black"/>
<path d="M85.4324 0H82.4865V2.94595H85.4324V0Z" fill="black"/>
<path d="M91.3243 0H88.3784V2.94595H91.3243V0Z" fill="black"/>
<path d="M94.2703 0H91.3243V2.94595H94.2703V0Z" fill="black"/>
<path d="M97.2162 0H94.2703V2.94595H97.2162V0Z" fill="black"/>
<path d="M100.162 0H97.2162V2.94595H100.162V0Z" fill="black"/>
<path d="M103.108 0H100.162V2.94595H103.108V0Z" fill="black"/>
<path d="M106.054 0H103.108V2.94595H106.054V0Z" fill="black"/>
<path d="M109 0H106.054V2.94595H109V0Z" fill="black"/>
<path d="M2.94595 2.94595H0V5.89189H2.94595V2.94595Z" fill="black"/>
<path d="M20.6216 2.94595H17.6757V5.89189H20.6216V2.94595Z" fill="black"/>
<path d="M35.3514 2.94595H32.4054V5.89189H35.3514V2.94595Z" fill="black"/>
<path d="M38.2973 2.94595H35.3514V5.89189H38.2973V2.94595Z" fill="black"/>
<path d="M41.2432 2.94595H38.2973V5.89189H41.2432V2.94595Z" fill="black"/>
<path d="M44.1892 2.94595H41.2432V5.89189H44.1892V2.94595Z" fill="black"/>
<path d="M47.1351 2.94595H44.1892V5.89189H47.1351V2.94595Z" fill="black"/>
<path d="M53.027 2.94595H50.0811V5.89189H53.027V2.94595Z" fill="black"/>
<path d="M58.9189 2.94595H55.973V5.89189H58.9189V2.94595Z" fill="black"/>
<path d="M67.7568 2.94595H64.8108V5.89189H67.7568V2.94595Z" fill="black"/>
<path d="M73.6487 2.94595H70.7027V5.89189H73.6487V2.94595Z" fill="black"/>
<path d="M76.5946 2.94595H73.6487V5.89189H76.5946V2.94595Z" fill="black"/>
<path d="M85.4324 2.94595H82.4865V5.89189H85.4324V2.94595Z" fill="black"/>
<path d="M91.3243 2.94595H88.3784V5.89189H91.3243V2.94595Z" fill="black"/>
<path d="M109 2.94595H106.054V5.89189H109V2.94595Z" fill="black"/>
<path d="M2.94595 5.89189H0V8.83784H2.94595V5.89189Z" fill="black"/>
<path d="M8.83784 5.89189H5.89189V8.83784H8.83784V5.89189Z" fill="black"/>
<path d="M11.7838 5.89189H8.83784V8.83784H11.7838V5.89189Z" fill="black"/>
<path d="M14.7297 5.89189H11.7838V8.83784H14.7297V5.89189Z" fill="black"/>
<path d="M20.6216 5.89189H17.6757V8.83784H20.6216V5.89189Z" fill="black"/>
<path d="M32.4054 5.89189H29.4595V8.83784H32.4054V5.89189Z" fill="black"/>
<path d="M35.3514 5.89189H32.4054V8.83784H35.3514V5.89189Z" fill="black"/>
<path d="M61.8649 5.89189H58.9189V8.83784H61.8649V5.89189Z" fill="black"/>
<path d="M67.7568 5.89189H64.8108V8.83784H67.7568V5.89189Z" fill="black"/>
<path d="M73.6487 5.89189H70.7027V8.83784H73.6487V5.89189Z" fill="black"/>
<path d="M79.5405 5.89189H76.5946V8.83784H79.5405V5.89189Z" fill="black"/>
<path d="M85.4324 5.89189H82.4865V8.83784H85.4324V5.89189Z" fill="black"/>
<path d="M91.3243 5.89189H88.3784V8.83784H91.3243V5.89189Z" fill="black"/>
<path d="M97.2162 5.89189H94.2703V8.83784H97.2162V5.89189Z" fill="black"/>
<path d="M100.162 5.89189H97.2162V8.83784H100.162V5.89189Z" fill="black"/>
<path d="M103.108 5.89189H100.162V8.83784H103.108V5.89189Z" fill="black"/>
<path d="M109 5.89189H106.054V8.83784H109V5.89189Z" fill="black"/>
<path d="M2.94595 8.83784H0V11.7838H2.94595V8.83784Z" fill="black"/>
<path d="M8.83784 8.83784H5.89189V11.7838H8.83784V8.83784Z" fill="black"/>
<path d="M11.7838 8.83784H8.83784V11.7838H11.7838V8.83784Z" fill="black"/>
<path d="M14.7297 8.83784H11.7838V11.7838H14.7297V8.83784Z" fill="black"/>
<path d="M20.6216 8.83784H17.6757V11.7838H20.6216V8.83784Z" fill="black"/>
<path d="M44.1892 8.83784H41.2432V11.7838H44.1892V8.83784Z" fill="black"/>
<path d="M50.0811 8.83784H47.1351V11.7838H50.0811V8.83784Z" fill="black"/>
<path d="M55.973 8.83784H53.027V11.7838H55.973V8.83784Z" fill="black"/>
<path d="M61.8649 8.83784H58.9189V11.7838H61.8649V8.83784Z" fill="black"/>
<path d="M64.8108 8.83784H61.8649V11.7838H64.8108V8.83784Z" fill="black"/>
<path d="M67.7568 8.83784H64.8108V11.7838H67.7568V8.83784Z" fill="black"/>
<path d="M73.6487 8.83784H70.7027V11.7838H73.6487V8.83784Z" fill="black"/>
<path d="M85.4324 8.83784H82.4865V11.7838H85.4324V8.83784Z" fill="black"/>
<path d="M91.3243 8.83784H88.3784V11.7838H91.3243V8.83784Z" fill="black"/>
<path d="M97.2162 8.83784H94.2703V11.7838H97.2162V8.83784Z" fill="black"/>
<path d="M100.162 8.83784H97.2162V11.7838H100.162V8.83784Z" fill="black"/>
<path d="M103.108 8.83784H100.162V11.7838H103.108V8.83784Z" fill="black"/>
<path d="M109 8.83784H106.054V11.7838H109V8.83784Z" fill="black"/>
<path d="M2.94595 11.7838H0V14.7297H2.94595V11.7838Z" fill="black"/>
<path d="M8.83784 11.7838H5.89189V14.7297H8.83784V11.7838Z" fill="black"/>
<path d="M11.7838 11.7838H8.83784V14.7297H11.7838V11.7838Z" fill="black"/>
<path d="M14.7297 11.7838H11.7838V14.7297H14.7297V11.7838Z" fill="black"/>
<path d="M20.6216 11.7838H17.6757V14.7297H20.6216V11.7838Z" fill="black"/>
<path d="M26.5135 11.7838H23.5676V14.7297H26.5135V11.7838Z" fill="black"/>
<path d="M29.4595 11.7838H26.5135V14.7297H29.4595V11.7838Z" fill="black"/>
<path d="M32.4054 11.7838H29.4595V14.7297H32.4054V11.7838Z" fill="black"/>
<path d="M41.2432 11.7838H38.2973V14.7297H41.2432V11.7838Z" fill="black"/>
<path d="M44.1892 11.7838H41.2432V14.7297H44.1892V11.7838Z" fill="black"/>
<path d="M50.0811 11.7838H47.1351V14.7297H50.0811V11.7838Z" fill="black"/>
<path d="M53.027 11.7838H50.0811V14.7297H53.027L53.027 11.7838Z" fill="black"/>
<path d="M55.973 11.7838H53.027L53.027 14.7297H55.973V11.7838Z" fill="black"/>
<path d="M58.9189 11.7838H55.973V14.7297H58.9189V11.7838Z" fill="black"/>
<path d="M64.8108 11.7838H61.8649V14.7297H64.8108V11.7838Z" fill="black"/>
<path d="M67.7568 11.7838H64.8108V14.7297H67.7568V11.7838Z" fill="black"/>
<path d="M76.5946 11.7838H73.6487V14.7297H76.5946V11.7838Z" fill="black"/>
<path d="M79.5405 11.7838H76.5946V14.7297H79.5405V11.7838Z" fill="black"/>
<path d="M82.4865 11.7838H79.5405V14.7297H82.4865V11.7838Z" fill="black"/>
<path d="M85.4324 11.7838H82.4865V14.7297H85.4324V11.7838Z" fill="black"/>
<path d="M91.3243 11.7838H88.3784V14.7297H91.3243V11.7838Z" fill="black"/>
<path d="M97.2162 11.7838H94.2703V14.7297H97.2162V11.7838Z" fill="black"/>
<path d="M100.162 11.7838H97.2162V14.7297H100.162V11.7838Z" fill="black"/>
<path d="M103.108 11.7838H100.162V14.7297H103.108V11.7838Z" fill="black"/>
<path d="M109 11.7838H106.054V14.7297H109V11.7838Z" fill="black"/>
<path d="M2.94595 14.7297H0V17.6757H2.94595V14.7297Z" fill="black"/>
<path d="M20.6216 14.7297H17.6757V17.6757H20.6216V14.7297Z" fill="black"/>
<path d="M29.4595 14.7297H26.5135V17.6757H29.4595V14.7297Z" fill="black"/>
<path d="M32.4054 14.7297H29.4595V17.6757H32.4054V14.7297Z" fill="black"/>
<path d="M35.3514 14.7297H32.4054V17.6757H35.3514V14.7297Z" fill="black"/>
<path d="M38.2973 14.7297H35.3514V17.6757H38.2973L38.2973 14.7297Z" fill="black"/>
<path d="M47.1351 14.7297H44.1892L44.1892 17.6757H47.1351L47.1351 14.7297Z" fill="black"/>
<path d="M50.0811 14.7297H47.1351L47.1351 17.6757H50.0811V14.7297Z" fill="black"/>
<path d="M67.7568 14.7297H64.8108V17.6757H67.7568V14.7297Z" fill="black"/>
<path d="M70.7027 14.7297H67.7568V17.6757H70.7027V14.7297Z" fill="black"/>
<path d="M73.6487 14.7297H70.7027V17.6757H73.6487V14.7297Z" fill="black"/>
<path d="M76.5946 14.7297H73.6487V17.6757H76.5946V14.7297Z" fill="black"/>
<path d="M82.4865 14.7297H79.5405V17.6757H82.4865V14.7297Z" fill="black"/>
<path d="M85.4324 14.7297H82.4865V17.6757H85.4324V14.7297Z" fill="black"/>
<path d="M91.3243 14.7297H88.3784V17.6757H91.3243V14.7297Z" fill="black"/>
<path d="M109 14.7297H106.054V17.6757H109V14.7297Z" fill="black"/>
<path d="M2.94595 17.6757H0V20.6216H2.94595V17.6757Z" fill="black"/>
<path d="M5.89189 17.6757H2.94595V20.6216H5.89189V17.6757Z" fill="black"/>
<path d="M8.83784 17.6757H5.89189V20.6216H8.83784V17.6757Z" fill="black"/>
<path d="M11.7838 17.6757H8.83784V20.6216H11.7838V17.6757Z" fill="black"/>
<path d="M14.7297 17.6757H11.7838V20.6216H14.7297V17.6757Z" fill="black"/>
<path d="M17.6757 17.6757H14.7297V20.6216H17.6757V17.6757Z" fill="black"/>
<path d="M20.6216 17.6757H17.6757V20.6216H20.6216V17.6757Z" fill="black"/>
<path d="M26.5135 17.6757H23.5676V20.6216H26.5135V17.6757Z" fill="black"/>
<path d="M32.4054 17.6757H29.4595V20.6216H32.4054V17.6757Z" fill="black"/>
<path d="M38.2973 17.6757H35.3514L35.3514 20.6216H38.2973V17.6757Z" fill="black"/>
<path d="M44.1892 17.6757H41.2432V20.6216H44.1892L44.1892 17.6757Z" fill="black"/>
<path d="M50.0811 17.6757H47.1351L47.1351 20.6216H50.0811V17.6757Z" fill="black"/>
<path d="M55.973 17.6757H53.027V20.6216H55.973V17.6757Z" fill="black"/>
<path d="M61.8649 17.6757H58.9189V20.6216H61.8649V17.6757Z" fill="black"/>
<path d="M67.7568 17.6757H64.8108V20.6216H67.7568V17.6757Z" fill="black"/>
<path d="M73.6487 17.6757H70.7027V20.6216H73.6487V17.6757Z" fill="black"/>
<path d="M79.5405 17.6757H76.5946V20.6216H79.5405V17.6757Z" fill="black"/>
<path d="M85.4324 17.6757H82.4865V20.6216H85.4324V17.6757Z" fill="black"/>
<path d="M91.3243 17.6757H88.3784V20.6216H91.3243V17.6757Z" fill="black"/>
<path d="M94.2703 17.6757H91.3243V20.6216H94.2703V17.6757Z" fill="black"/>
<path d="M97.2162 17.6757H94.2703V20.6216H97.2162V17.6757Z" fill="black"/>
<path d="M100.162 17.6757H97.2162V20.6216H100.162V17.6757Z" fill="black"/>
<path d="M103.108 17.6757H100.162V20.6216H103.108V17.6757Z" fill="black"/>
<path d="M106.054 17.6757H103.108V20.6216H106.054V17.6757Z" fill="black"/>
<path d="M109 17.6757H106.054V20.6216H109V17.6757Z" fill="black"/>
<path d="M26.5135 20.6216H23.5676V23.5676H26.5135V20.6216Z" fill="black"/>
<path d="M32.4054 20.6216H29.4595V23.5676H32.4054V20.6216Z" fill="black"/>
<path d="M35.3514 20.6216H32.4054V23.5676H35.3514L35.3514 20.6216Z" fill="black"/>
<path d="M38.2973 20.6216H35.3514L35.3514 23.5676H38.2973V20.6216Z" fill="black"/>
<path d="M47.1351 20.6216H44.1892L44.1892 23.5676H47.1351L47.1351 20.6216Z" fill="black"/>
<path d="M50.0811 20.6216H47.1351L47.1351 23.5676H50.0811V20.6216Z" fill="black"/>
<path d="M53.027 20.6216H50.0811V23.5676H53.027L53.027 20.6216Z" fill="black"/>
<path d="M55.973 20.6216H53.027L53.027 23.5676H55.973V20.6216Z" fill="black"/>
<path d="M58.9189 20.6216H55.973V23.5676H58.9189V20.6216Z" fill="black"/>
<path d="M61.8649 20.6216H58.9189V23.5676H61.8649V20.6216Z" fill="black"/>
<path d="M70.7027 20.6216H67.7568V23.5676H70.7027V20.6216Z" fill="black"/>
<path d="M85.4324 20.6216H82.4865V23.5676H85.4324V20.6216Z" fill="black"/>
<path d="M2.94595 23.5676H0V26.5135H2.94595V23.5676Z" fill="black"/>
<path d="M11.7838 23.5676H8.83784V26.5135H11.7838V23.5676Z" fill="black"/>
<path d="M14.7297 23.5676H11.7838V26.5135H14.7297V23.5676Z" fill="black"/>
<path d="M17.6757 23.5676H14.7297V26.5135H17.6757V23.5676Z" fill="black"/>
<path d="M20.6216 23.5676H17.6757V26.5135H20.6216V23.5676Z" fill="black"/>
<path d="M23.5676 23.5676H20.6216V26.5135H23.5676V23.5676Z" fill="black"/>
<path d="M26.5135 23.5676H23.5676V26.5135H26.5135V23.5676Z" fill="black"/>
<path d="M35.3514 23.5676H32.4054V26.5135H35.3514V23.5676Z" fill="black"/>
<path d="M50.0811 23.5676H47.1351L47.1351 26.5135H50.0811V23.5676Z" fill="black"/>
<path d="M58.9189 23.5676H55.973V26.5135H58.9189V23.5676Z" fill="black"/>
<path d="M64.8108 23.5676H61.8649V26.5135H64.8108V23.5676Z" fill="black"/>
<path d="M67.7568 23.5676H64.8108V26.5135H67.7568V23.5676Z" fill="black"/>
<path d="M70.7027 23.5676H67.7568V26.5135H70.7027V23.5676Z" fill="black"/>
<path d="M82.4865 23.5676H79.5405V26.5135H82.4865V23.5676Z" fill="black"/>
<path d="M85.4324 23.5676H82.4865V26.5135H85.4324V23.5676Z" fill="black"/>
<path d="M88.3784 23.5676H85.4324V26.5135H88.3784V23.5676Z" fill="black"/>
<path d="M91.3243 23.5676H88.3784V26.5135H91.3243V23.5676Z" fill="black"/>
<path d="M97.2162 23.5676H94.2703V26.5135H97.2162V23.5676Z" fill="black"/>
<path d="M109 23.5676H106.054V26.5135H109V23.5676Z" fill="black"/>
<path d="M17.6757 26.5135H14.7297V29.4595H17.6757V26.5135Z" fill="black"/>
<path d="M23.5676 26.5135H20.6216V29.4595H23.5676V26.5135Z" fill="black"/>
<path d="M41.2432 26.5135H38.2973V29.4595H41.2432V26.5135Z" fill="black"/>
<path d="M53.027 26.5135H50.0811L50.0811 29.4595H53.027V26.5135Z" fill="black"/>
<path d="M58.9189 26.5135H55.973V29.4595H58.9189V26.5135Z" fill="black"/>
<path d="M76.5946 26.5135H73.6487V29.4595H76.5946V26.5135Z" fill="black"/>
<path d="M79.5405 26.5135H76.5946V29.4595H79.5405V26.5135Z" fill="black"/>
<path d="M82.4865 26.5135H79.5405V29.4595H82.4865V26.5135Z" fill="black"/>
<path d="M91.3243 26.5135H88.3784V29.4595H91.3243V26.5135Z" fill="black"/>
<path d="M100.162 26.5135H97.2162V29.4595H100.162V26.5135Z" fill="black"/>
<path d="M109 26.5135H106.054V29.4595H109V26.5135Z" fill="black"/>
<path d="M2.94595 29.4595H0V32.4054H2.94595V29.4595Z" fill="black"/>
<path d="M8.83784 29.4595H5.89189V32.4054H8.83784V29.4595Z" fill="black"/>
<path d="M14.7297 29.4595H11.7838V32.4054H14.7297V29.4595Z" fill="black"/>
<path d="M17.6757 29.4595H14.7297V32.4054H17.6757V29.4595Z" fill="black"/>
<path d="M20.6216 29.4595H17.6757V32.4054H20.6216V29.4595Z" fill="black"/>
<path d="M26.5135 29.4595H23.5676V32.4054H26.5135V29.4595Z" fill="black"/>
<path d="M29.4595 29.4595H26.5135V32.4054H29.4595V29.4595Z" fill="black"/>
<path d="M32.4054 29.4595H29.4595V32.4054H32.4054V29.4595Z" fill="black"/>
<path d="M35.3514 29.4595H32.4054V32.4054H35.3514V29.4595Z" fill="black"/>
<path d="M38.2973 29.4595H35.3514V32.4054H38.2973L38.2973 29.4595Z" fill="black"/>
<path d="M41.2432 29.4595H38.2973L38.2973 32.4054H41.2432V29.4595Z" fill="black"/>
<path d="M53.027 29.4595H50.0811V32.4054H53.027V29.4595Z" fill="black"/>
<path d="M58.9189 29.4595H55.973V32.4054H58.9189V29.4595Z" fill="black"/>
<path d="M67.7568 29.4595H64.8108V32.4054H67.7568V29.4595Z" fill="black"/>
<path d="M70.7027 29.4595H67.7568V32.4054H70.7027V29.4595Z" fill="black"/>
<path d="M73.6487 29.4595H70.7027V32.4054H73.6487V29.4595Z" fill="black"/>
<path d="M76.5946 29.4595H73.6487V32.4054H76.5946V29.4595Z" fill="black"/>
<path d="M79.5405 29.4595H76.5946V32.4054H79.5405V29.4595Z" fill="black"/>
<path d="M85.4324 29.4595H82.4865V32.4054H85.4324V29.4595Z" fill="black"/>
<path d="M91.3243 29.4595H88.3784V32.4054H91.3243V29.4595Z" fill="black"/>
<path d="M100.162 29.4595H97.2162V32.4054H100.162V29.4595Z" fill="black"/>
<path d="M106.054 29.4595H103.108V32.4054H106.054V29.4595Z" fill="black"/>
<path d="M109 29.4595H106.054V32.4054H109V29.4595Z" fill="black"/>
<path d="M5.89189 32.4054H2.94595V35.3514H5.89189V32.4054Z" fill="black"/>
<path d="M8.83784 32.4054H5.89189V35.3514H8.83784V32.4054Z" fill="black"/>
<path d="M11.7838 32.4054H8.83784V35.3514H11.7838V32.4054Z" fill="black"/>
<path d="M17.6757 32.4054H14.7297V35.3514H17.6757V32.4054Z" fill="black"/>
<path d="M29.4595 32.4054H26.5135V35.3514H29.4595V32.4054Z" fill="black"/>
<path d="M38.2973 32.4054H35.3514L35.3514 35.3514H38.2973V32.4054Z" fill="black"/>
<path d="M41.2432 32.4054H38.2973V35.3514H41.2432V32.4054Z" fill="black"/>
<path d="M44.1892 32.4054H41.2432V35.3514H44.1892V32.4054Z" fill="black"/>
<path d="M50.0811 32.4054H47.1351V35.3514H50.0811L50.0811 32.4054Z" fill="black"/>
<path d="M55.973 32.4054H53.027L53.027 35.3514H55.973V32.4054Z" fill="black"/>
<path d="M58.9189 32.4054H55.973V35.3514H58.9189V32.4054Z" fill="black"/>
<path d="M61.8649 32.4054H58.9189V35.3514H61.8649V32.4054Z" fill="black"/>
<path d="M73.6487 32.4054H70.7027V35.3514H73.6487V32.4054Z" fill="black"/>
<path d="M76.5946 32.4054H73.6487V35.3514H76.5946V32.4054Z" fill="black"/>
<path d="M85.4324 32.4054H82.4865V35.3514H85.4324V32.4054Z" fill="black"/>
<path d="M100.162 32.4054H97.2162V35.3514H100.162V32.4054Z" fill="black"/>
<path d="M103.108 32.4054H100.162V35.3514H103.108V32.4054Z" fill="black"/>
<path d="M109 32.4054H106.054V35.3514H109V32.4054Z" fill="black"/>
<path d="M2.94595 35.3514L0 35.3514V38.2973H2.94595V35.3514Z" fill="black"/>
<path d="M5.89189 35.3514H2.94595V38.2973H5.89189V35.3514Z" fill="black"/>
<path d="M8.83784 35.3514H5.89189V38.2973H8.83784V35.3514Z" fill="black"/>
<path d="M11.7838 35.3514H8.83784V38.2973H11.7838V35.3514Z" fill="black"/>
<path d="M14.7297 35.3514H11.7838V38.2973H14.7297V35.3514Z" fill="black"/>
<path d="M17.6757 35.3514H14.7297V38.2973H17.6757V35.3514Z" fill="black"/>
<path d="M20.6216 35.3514L17.6757 35.3514V38.2973H20.6216V35.3514Z" fill="black"/>
<path d="M23.5676 35.3514H20.6216V38.2973H23.5676V35.3514Z" fill="black"/>
<path d="M29.4595 35.3514H26.5135V38.2973H29.4595V35.3514Z" fill="black"/>
<path d="M44.1892 35.3514H41.2432V38.2973H44.1892V35.3514Z" fill="black"/>
<path d="M47.1351 35.3514H44.1892V38.2973H47.1351L47.1351 35.3514Z" fill="black"/>
<path d="M50.0811 35.3514H47.1351L47.1351 38.2973H50.0811V35.3514Z" fill="black"/>
<path d="M61.8649 35.3514H58.9189V38.2973H61.8649V35.3514Z" fill="black"/>
<path d="M64.8108 35.3514L61.8649 35.3514V38.2973H64.8108V35.3514Z" fill="black"/>
<path d="M67.7568 35.3514H64.8108V38.2973H67.7568V35.3514Z" fill="black"/>
<path d="M76.5946 35.3514H73.6487V38.2973H76.5946V35.3514Z" fill="black"/>
<path d="M88.3784 35.3514L85.4324 35.3514V38.2973H88.3784V35.3514Z" fill="black"/>
<path d="M94.2703 35.3514H91.3243V38.2973H94.2703V35.3514Z" fill="black"/>
<path d="M97.2162 35.3514L94.2703 35.3514V38.2973H97.2162V35.3514Z" fill="black"/>
<path d="M100.162 35.3514H97.2162V38.2973H100.162V35.3514Z" fill="black"/>
<path d="M103.108 35.3514H100.162V38.2973H103.108V35.3514Z" fill="black"/>
<path d="M109 35.3514H106.054V38.2973H109V35.3514Z" fill="black"/>
<path d="M2.94595 38.2973H0V41.2432H2.94595V38.2973Z" fill="black"/>
<path d="M8.83784 38.2973H5.89189V41.2432H8.83784V38.2973Z" fill="black"/>
<path d="M23.5676 38.2973H20.6216V41.2432H23.5676V38.2973Z" fill="black"/>
<path d="M29.4595 38.2973H26.5135V41.2432H29.4595V38.2973Z" fill="black"/>
<path d="M38.2973 38.2973H35.3514V41.2432H38.2973V38.2973Z" fill="black"/>
<path d="M41.2432 38.2973L38.2973 38.2973V41.2432H41.2432V38.2973Z" fill="black"/>
<path d="M44.1892 38.2973H41.2432V41.2432H44.1892V38.2973Z" fill="black"/>
<path d="M47.1351 38.2973H44.1892V41.2432H47.1351V38.2973Z" fill="black"/>
<path d="M53.027 38.2973L50.0811 38.2973L50.0811 41.2432H53.027V38.2973Z" fill="black"/>
<path d="M55.973 38.2973H53.027V41.2432H55.973V38.2973Z" fill="black"/>
<path d="M58.9189 38.2973L55.973 38.2973V41.2432H58.9189V38.2973Z" fill="black"/>
<path d="M61.8649 38.2973H58.9189V41.2432H61.8649V38.2973Z" fill="black"/>
<path d="M64.8108 38.2973H61.8649V41.2432H64.8108V38.2973Z" fill="black"/>
<path d="M70.7027 38.2973L67.7568 38.2973V41.2432H70.7027V38.2973Z" fill="black"/>
<path d="M73.6487 38.2973L70.7027 38.2973V41.2432H73.6487V38.2973Z" fill="black"/>
<path d="M85.4324 38.2973L82.4865 38.2973V41.2432H85.4324V38.2973Z" fill="black"/>
<path d="M88.3784 38.2973H85.4324V41.2432H88.3784V38.2973Z" fill="black"/>
<path d="M97.2162 38.2973H94.2703V41.2432H97.2162V38.2973Z" fill="black"/>
<path d="M100.162 38.2973H97.2162V41.2432H100.162V38.2973Z" fill="black"/>
<path d="M103.108 38.2973H100.162V41.2432H103.108V38.2973Z" fill="black"/>
<path d="M11.7838 41.2432H8.83784V44.1892H11.7838V41.2432Z" fill="black"/>
<path d="M17.6757 41.2432H14.7297V44.1892H17.6757V41.2432Z" fill="black"/>
<path d="M20.6216 41.2432H17.6757V44.1892H20.6216V41.2432Z" fill="black"/>
<path d="M23.5676 41.2432H20.6216V44.1892H23.5676V41.2432Z" fill="black"/>
<path d="M32.4054 41.2432H29.4595V44.1892H32.4054V41.2432Z" fill="black"/>
<path d="M35.3514 41.2432H32.4054V44.1892H35.3514L35.3514 41.2432Z" fill="black"/>
<path d="M38.2973 41.2432H35.3514L35.3514 44.1892H38.2973V41.2432Z" fill="black"/>
<path d="M44.1892 41.2432H41.2432V44.1892H44.1892V41.2432Z" fill="black"/>
<path d="M47.1351 41.2432H44.1892V44.1892H47.1351V41.2432Z" fill="black"/>
<path d="M50.0811 41.2432H47.1351V44.1892H50.0811L50.0811 41.2432Z" fill="black"/>
<path d="M61.8649 41.2432H58.9189V44.1892H61.8649V41.2432Z" fill="black"/>
<path d="M67.7568 41.2432H64.8108V44.1892H67.7568V41.2432Z" fill="black"/>
<path d="M70.7027 41.2432H67.7568V44.1892H70.7027V41.2432Z" fill="black"/>
<path d="M76.5946 41.2432H73.6487V44.1892H76.5946V41.2432Z" fill="black"/>
<path d="M97.2162 41.2432H94.2703V44.1892H97.2162V41.2432Z" fill="black"/>
<path d="M103.108 41.2432H100.162V44.1892H103.108V41.2432Z" fill="black"/>
<path d="M106.054 41.2432H103.108V44.1892H106.054V41.2432Z" fill="black"/>
<path d="M2.94595 44.1892H0V47.1351H2.94595V44.1892Z" fill="black"/>
<path d="M14.7297 44.1892H11.7838V47.1351H14.7297V44.1892Z" fill="black"/>
<path d="M17.6757 44.1892H14.7297V47.1351H17.6757V44.1892Z" fill="black"/>
<path d="M26.5135 44.1892L23.5676 44.1892V47.1351H26.5135V44.1892Z" fill="black"/>
<path d="M38.2973 44.1892H35.3514L35.3514 47.1351H38.2973V44.1892Z" fill="black"/>
<path d="M44.1892 44.1892H41.2432V47.1351H44.1892V44.1892Z" fill="black"/>
<path d="M55.973 44.1892H53.027V47.1351H55.973V44.1892Z" fill="black"/>
<path d="M58.9189 44.1892L55.973 44.1892V47.1351H58.9189V44.1892Z" fill="black"/>
<path d="M64.8108 44.1892H61.8649V47.1351H64.8108V44.1892Z" fill="black"/>
<path d="M67.7568 44.1892H64.8108V47.1351H67.7568V44.1892Z" fill="black"/>
<path d="M70.7027 44.1892H67.7568V47.1351H70.7027V44.1892Z" fill="black"/>
<path d="M85.4324 44.1892H82.4865V47.1351H85.4324V44.1892Z" fill="black"/>
<path d="M88.3784 44.1892H85.4324V47.1351H88.3784V44.1892Z" fill="black"/>
<path d="M91.3243 44.1892H88.3784V47.1351H91.3243V44.1892Z" fill="black"/>
<path d="M94.2703 44.1892L91.3243 44.1892V47.1351H94.2703V44.1892Z" fill="black"/>
<path d="M103.108 44.1892H100.162V47.1351H103.108V44.1892Z" fill="black"/>
<path d="M106.054 44.1892H103.108V47.1351H106.054V44.1892Z" fill="black"/>
<path d="M2.94595 47.1351H0V50.0811H2.94595V47.1351Z" fill="black"/>
<path d="M5.89189 47.1351L2.94595 47.1351V50.0811H5.89189V47.1351Z" fill="black"/>
<path d="M11.7838 47.1351L8.83784 47.1351V50.0811H11.7838V47.1351Z" fill="black"/>
<path d="M20.6216 47.1351L17.6757 47.1351V50.0811H20.6216V47.1351Z" fill="black"/>
<path d="M29.4595 47.1351L26.5135 47.1351V50.0811H29.4595V47.1351Z" fill="black"/>
<path d="M32.4054 47.1351H29.4595V50.0811H32.4054V47.1351Z" fill="black"/>
<path d="M41.2432 47.1351H38.2973L38.2973 50.0811H41.2432V47.1351Z" fill="black"/>
<path d="M44.1892 47.1351H41.2432V50.0811H44.1892V47.1351Z" fill="black"/>
<path d="M50.0811 47.1351H47.1351V50.0811H50.0811V47.1351Z" fill="black"/>
<path d="M58.9189 47.1351H55.973V50.0811H58.9189V47.1351Z" fill="black"/>
<path d="M61.8649 47.1351H58.9189V50.0811H61.8649V47.1351Z" fill="black"/>
<path d="M76.5946 47.1351H73.6487V50.0811H76.5946V47.1351Z" fill="black"/>
<path d="M79.5405 47.1351H76.5946V50.0811H79.5405V47.1351Z" fill="black"/>
<path d="M85.4324 47.1351H82.4865V50.0811H85.4324V47.1351Z" fill="black"/>
<path d="M91.3243 47.1351H88.3784V50.0811H91.3243V47.1351Z" fill="black"/>
<path d="M97.2162 47.1351L94.2703 47.1351V50.0811H97.2162V47.1351Z" fill="black"/>
<path d="M106.054 47.1351H103.108V50.0811H106.054V47.1351Z" fill="black"/>
<path d="M109 47.1351L106.054 47.1351V50.0811H109V47.1351Z" fill="black"/>
<path d="M2.94595 50.0811H0V53.027H2.94595V50.0811Z" fill="black"/>
<path d="M5.89189 50.0811H2.94595V53.027H5.89189V50.0811Z" fill="black"/>
<path d="M8.83784 50.0811H5.89189V53.027H8.83784V50.0811Z" fill="black"/>
<path d="M11.7838 50.0811H8.83784V53.027H11.7838V50.0811Z" fill="black"/>
<path d="M23.5676 50.0811L20.6216 50.0811V53.027H23.5676V50.0811Z" fill="black"/>
<path d="M26.5135 50.0811L23.5676 50.0811V53.027H26.5135V50.0811Z" fill="black"/>
<path d="M29.4595 50.0811H26.5135V53.027H29.4595V50.0811Z" fill="black"/>
<path d="M35.3514 50.0811L32.4054 50.0811V53.027H35.3514V50.0811Z" fill="black"/>
<path d="M38.2973 50.0811L35.3514 50.0811V53.027H38.2973L38.2973 50.0811Z" fill="black"/>
<path d="M44.1892 50.0811H41.2432V53.027H44.1892V50.0811Z" fill="black"/>
<path d="M47.1351 50.0811H44.1892V53.027H47.1351L47.1351 50.0811Z" fill="black"/>
<path d="M50.0811 50.0811H47.1351L47.1351 53.027H50.0811V50.0811Z" fill="black"/>
<path d="M55.973 50.0811L53.027 50.0811V53.027H55.973V50.0811Z" fill="black"/>
<path d="M58.9189 50.0811H55.973V53.027H58.9189V50.0811Z" fill="black"/>
<path d="M61.8649 50.0811H58.9189V53.027H61.8649V50.0811Z" fill="black"/>
<path d="M67.7568 50.0811H64.8108V53.027H67.7568V50.0811Z" fill="black"/>
<path d="M70.7027 50.0811H67.7568V53.027H70.7027V50.0811Z" fill="black"/>
<path d="M82.4865 50.0811H79.5405V53.027H82.4865V50.0811Z" fill="black"/>
<path d="M85.4324 50.0811H82.4865V53.027H85.4324V50.0811Z" fill="black"/>
<path d="M88.3784 50.0811H85.4324V53.027H88.3784V50.0811Z" fill="black"/>
<path d="M106.054 50.0811H103.108V53.027H106.054V50.0811Z" fill="black"/>
<path d="M109 50.0811H106.054V53.027H109V50.0811Z" fill="black"/>
<path d="M14.7297 53.027L11.7838 53.027V55.973H14.7297V53.027Z" fill="black"/>
<path d="M17.6757 53.027H14.7297V55.973H17.6757V53.027Z" fill="black"/>
<path d="M20.6216 53.027L17.6757 53.027V55.973H20.6216V53.027Z" fill="black"/>
<path d="M26.5135 53.027H23.5676V55.973H26.5135V53.027Z" fill="black"/>
<path d="M38.2973 53.027H35.3514L35.3514 55.973H38.2973V53.027Z" fill="black"/>
<path d="M50.0811 53.027H47.1351L47.1351 55.973H50.0811V53.027Z" fill="black"/>
<path d="M58.9189 53.027H55.973V55.973H58.9189V53.027Z" fill="black"/>
<path d="M61.8649 53.027H58.9189V55.973H61.8649V53.027Z" fill="black"/>
<path d="M67.7568 53.027H64.8108V55.973H67.7568V53.027Z" fill="black"/>
<path d="M70.7027 53.027H67.7568V55.973H70.7027V53.027Z" fill="black"/>
<path d="M73.6487 53.027L70.7027 53.027V55.973H73.6487V53.027Z" fill="black"/>
<path d="M76.5946 53.027H73.6487V55.973H76.5946V53.027Z" fill="black"/>
<path d="M85.4324 53.027H82.4865V55.973H85.4324V53.027Z" fill="black"/>
<path d="M91.3243 53.027L88.3784 53.027V55.973H91.3243V53.027Z" fill="black"/>
<path d="M100.162 53.027H97.2162V55.973H100.162V53.027Z" fill="black"/>
<path d="M106.054 53.027H103.108V55.973H106.054V53.027Z" fill="black"/>
<path d="M109 53.027H106.054V55.973H109V53.027Z" fill="black"/>
<path d="M5.89189 55.973H2.94595V58.9189H5.89189V55.973Z" fill="black"/>
<path d="M8.83784 55.973H5.89189V58.9189H8.83784V55.973Z" fill="black"/>
<path d="M17.6757 55.973H14.7297V58.9189H17.6757V55.973Z" fill="black"/>
<path d="M23.5676 55.973H20.6216V58.9189H23.5676V55.973Z" fill="black"/>
<path d="M47.1351 55.973H44.1892V58.9189H47.1351L47.1351 55.973Z" fill="black"/>
<path d="M58.9189 55.973H55.973V58.9189H58.9189V55.973Z" fill="black"/>
<path d="M61.8649 55.973H58.9189V58.9189H61.8649V55.973Z" fill="black"/>
<path d="M64.8108 55.973H61.8649V58.9189H64.8108V55.973Z" fill="black"/>
<path d="M73.6487 55.973H70.7027V58.9189H73.6487V55.973Z" fill="black"/>
<path d="M85.4324 55.973H82.4865V58.9189H85.4324V55.973Z" fill="black"/>
<path d="M97.2162 55.973H94.2703V58.9189H97.2162V55.973Z" fill="black"/>
<path d="M2.94595 58.9189H0V61.8649H2.94595V58.9189Z" fill="black"/>
<path d="M5.89189 58.9189H2.94595V61.8649H5.89189V58.9189Z" fill="black"/>
<path d="M14.7297 58.9189H11.7838V61.8649H14.7297V58.9189Z" fill="black"/>
<path d="M20.6216 58.9189H17.6757V61.8649H20.6216V58.9189Z" fill="black"/>
<path d="M23.5676 58.9189H20.6216V61.8649H23.5676V58.9189Z" fill="black"/>
<path d="M29.4595 58.9189H26.5135V61.8649H29.4595V58.9189Z" fill="black"/>
<path d="M32.4054 58.9189H29.4595V61.8649H32.4054V58.9189Z" fill="black"/>
<path d="M35.3514 58.9189H32.4054V61.8649H35.3514V58.9189Z" fill="black"/>
<path d="M38.2973 58.9189H35.3514V61.8649H38.2973V58.9189Z" fill="black"/>
<path d="M47.1351 58.9189H44.1892V61.8649H47.1351V58.9189Z" fill="black"/>
<path d="M50.0811 58.9189H47.1351V61.8649H50.0811V58.9189Z" fill="black"/>
<path d="M53.027 58.9189H50.0811V61.8649H53.027V58.9189Z" fill="black"/>
<path d="M61.8649 58.9189H58.9189V61.8649H61.8649V58.9189Z" fill="black"/>
<path d="M76.5946 58.9189H73.6487V61.8649H76.5946V58.9189Z" fill="black"/>
<path d="M85.4324 58.9189H82.4865V61.8649H85.4324V58.9189Z" fill="black"/>
<path d="M88.3784 58.9189H85.4324V61.8649H88.3784V58.9189Z" fill="black"/>
<path d="M94.2703 58.9189H91.3243V61.8649H94.2703V58.9189Z" fill="black"/>
<path d="M100.162 58.9189H97.2162V61.8649H100.162V58.9189Z" fill="black"/>
<path d="M103.108 58.9189H100.162V61.8649H103.108V58.9189Z" fill="black"/>
<path d="M106.054 58.9189H103.108V61.8649H106.054V58.9189Z" fill="black"/>
<path d="M109 58.9189H106.054V61.8649H109V58.9189Z" fill="black"/>
<path d="M5.89189 61.8649H2.94595V64.8108H5.89189V61.8649Z" fill="black"/>
<path d="M8.83784 61.8649H5.89189V64.8108H8.83784V61.8649Z" fill="black"/>
<path d="M14.7297 61.8649H11.7838V64.8108H14.7297V61.8649Z" fill="black"/>
<path d="M17.6757 61.8649H14.7297V64.8108H17.6757V61.8649Z" fill="black"/>
<path d="M23.5676 61.8649H20.6216V64.8108H23.5676V61.8649Z" fill="black"/>
<path d="M29.4595 61.8649H26.5135V64.8108H29.4595V61.8649Z" fill="black"/>
<path d="M32.4054 61.8649H29.4595V64.8108H32.4054V61.8649Z" fill="black"/>
<path d="M35.3514 61.8649H32.4054V64.8108H35.3514V61.8649Z" fill="black"/>
<path d="M38.2973 61.8649H35.3514V64.8108H38.2973V61.8649Z" fill="black"/>
<path d="M41.2432 61.8649H38.2973V64.8108H41.2432V61.8649Z" fill="black"/>
<path d="M47.1351 61.8649H44.1892V64.8108H47.1351V61.8649Z" fill="black"/>
<path d="M50.0811 61.8649H47.1351V64.8108H50.0811V61.8649Z" fill="black"/>
<path d="M55.973 61.8649H53.027L53.027 64.8108H55.973V61.8649Z" fill="black"/>
<path d="M58.9189 61.8649H55.973V64.8108H58.9189V61.8649Z" fill="black"/>
<path d="M67.7568 61.8649H64.8108V64.8108H67.7568V61.8649Z" fill="black"/>
<path d="M70.7027 61.8649H67.7568V64.8108H70.7027V61.8649Z" fill="black"/>
<path d="M73.6487 61.8649H70.7027V64.8108H73.6487V61.8649Z" fill="black"/>
<path d="M76.5946 61.8649H73.6487V64.8108H76.5946V61.8649Z" fill="black"/>
<path d="M82.4865 61.8649H79.5405V64.8108H82.4865V61.8649Z" fill="black"/>
<path d="M91.3243 61.8649H88.3784V64.8108H91.3243V61.8649Z" fill="black"/>
<path d="M94.2703 61.8649H91.3243V64.8108H94.2703V61.8649Z" fill="black"/>
<path d="M97.2162 61.8649H94.2703V64.8108H97.2162V61.8649Z" fill="black"/>
<path d="M100.162 61.8649H97.2162V64.8108H100.162V61.8649Z" fill="black"/>
<path d="M103.108 61.8649H100.162V64.8108H103.108V61.8649Z" fill="black"/>
<path d="M106.054 61.8649H103.108V64.8108H106.054V61.8649Z" fill="black"/>
<path d="M2.94595 64.8108H0V67.7568H2.94595V64.8108Z" fill="black"/>
<path d="M5.89189 64.8108H2.94595V67.7568H5.89189V64.8108Z" fill="black"/>
<path d="M8.83784 64.8108H5.89189V67.7568H8.83784V64.8108Z" fill="black"/>
<path d="M20.6216 64.8108H17.6757V67.7568H20.6216V64.8108Z" fill="black"/>
<path d="M23.5676 64.8108H20.6216V67.7568H23.5676V64.8108Z" fill="black"/>
<path d="M32.4054 64.8108H29.4595V67.7568H32.4054V64.8108Z" fill="black"/>
<path d="M38.2973 64.8108H35.3514L35.3514 67.7568H38.2973V64.8108Z" fill="black"/>
<path d="M44.1892 64.8108H41.2432V67.7568H44.1892L44.1892 64.8108Z" fill="black"/>
<path d="M47.1351 64.8108H44.1892L44.1892 67.7568H47.1351V64.8108Z" fill="black"/>
<path d="M53.027 64.8108H50.0811L50.0811 67.7568H53.027L53.027 64.8108Z" fill="black"/>
<path d="M58.9189 64.8108H55.973V67.7568H58.9189V64.8108Z" fill="black"/>
<path d="M67.7568 64.8108H64.8108V67.7568H67.7568V64.8108Z" fill="black"/>
<path d="M70.7027 64.8108H67.7568V67.7568H70.7027V64.8108Z" fill="black"/>
<path d="M76.5946 64.8108H73.6487V67.7568H76.5946V64.8108Z" fill="black"/>
<path d="M79.5405 64.8108H76.5946V67.7568H79.5405V64.8108Z" fill="black"/>
<path d="M82.4865 64.8108H79.5405V67.7568H82.4865V64.8108Z" fill="black"/>
<path d="M85.4324 64.8108H82.4865V67.7568H85.4324V64.8108Z" fill="black"/>
<path d="M94.2703 64.8108H91.3243V67.7568H94.2703V64.8108Z" fill="black"/>
<path d="M103.108 64.8108H100.162V67.7568H103.108V64.8108Z" fill="black"/>
<path d="M109 64.8108H106.054V67.7568H109V64.8108Z" fill="black"/>
<path d="M2.94595 67.7568H0V70.7027H2.94595V67.7568Z" fill="black"/>
<path d="M11.7838 67.7568H8.83784V70.7027H11.7838V67.7568Z" fill="black"/>
<path d="M14.7297 67.7568H11.7838V70.7027H14.7297V67.7568Z" fill="black"/>
<path d="M23.5676 67.7568H20.6216V70.7027H23.5676V67.7568Z" fill="black"/>
<path d="M32.4054 67.7568H29.4595V70.7027H32.4054V67.7568Z" fill="black"/>
<path d="M38.2973 67.7568H35.3514V70.7027H38.2973V67.7568Z" fill="black"/>
<path d="M41.2432 67.7568H38.2973V70.7027H41.2432V67.7568Z" fill="black"/>
<path d="M44.1892 67.7568H41.2432V70.7027H44.1892V67.7568Z" fill="black"/>
<path d="M47.1351 67.7568H44.1892V70.7027H47.1351V67.7568Z" fill="black"/>
<path d="M55.973 67.7568H53.027L53.027 70.7027H55.973V67.7568Z" fill="black"/>
<path d="M58.9189 67.7568H55.973V70.7027H58.9189V67.7568Z" fill="black"/>
<path d="M67.7568 67.7568H64.8108V70.7027H67.7568V67.7568Z" fill="black"/>
<path d="M70.7027 67.7568H67.7568V70.7027H70.7027V67.7568Z" fill="black"/>
<path d="M79.5405 67.7568H76.5946V70.7027H79.5405V67.7568Z" fill="black"/>
<path d="M85.4324 67.7568H82.4865V70.7027H85.4324V67.7568Z" fill="black"/>
<path d="M88.3784 67.7568H85.4324V70.7027H88.3784V67.7568Z" fill="black"/>
<path d="M91.3243 67.7568H88.3784V70.7027H91.3243V67.7568Z" fill="black"/>
<path d="M103.108 67.7568H100.162V70.7027H103.108V67.7568Z" fill="black"/>
<path d="M106.054 67.7568H103.108V70.7027H106.054V67.7568Z" fill="black"/>
<path d="M2.94595 70.7027H0V73.6487H2.94595V70.7027Z" fill="black"/>
<path d="M5.89189 70.7027H2.94595V73.6487H5.89189V70.7027Z" fill="black"/>
<path d="M11.7838 70.7027H8.83784V73.6487H11.7838V70.7027Z" fill="black"/>
<path d="M20.6216 70.7027H17.6757V73.6487H20.6216V70.7027Z" fill="black"/>
<path d="M26.5135 70.7027H23.5676V73.6487H26.5135V70.7027Z" fill="black"/>
<path d="M32.4054 70.7027H29.4595V73.6487H32.4054V70.7027Z" fill="black"/>
<path d="M35.3514 70.7027H32.4054V73.6487H35.3514L35.3514 70.7027Z" fill="black"/>
<path d="M38.2973 70.7027H35.3514L35.3514 73.6487H38.2973V70.7027Z" fill="black"/>
<path d="M47.1351 70.7027H44.1892L44.1892 73.6487H47.1351V70.7027Z" fill="black"/>
<path d="M50.0811 70.7027H47.1351V73.6487H50.0811V70.7027Z" fill="black"/>
<path d="M58.9189 70.7027H55.973V73.6487H58.9189V70.7027Z" fill="black"/>
<path d="M61.8649 70.7027H58.9189V73.6487H61.8649V70.7027Z" fill="black"/>
<path d="M73.6487 70.7027H70.7027V73.6487H73.6487V70.7027Z" fill="black"/>
<path d="M85.4324 70.7027H82.4865V73.6487H85.4324V70.7027Z" fill="black"/>
<path d="M88.3784 70.7027H85.4324V73.6487H88.3784V70.7027Z" fill="black"/>
<path d="M91.3243 70.7027H88.3784V73.6487H91.3243V70.7027Z" fill="black"/>
<path d="M94.2703 70.7027H91.3243V73.6487H94.2703V70.7027Z" fill="black"/>
<path d="M97.2162 70.7027H94.2703V73.6487H97.2162V70.7027Z" fill="black"/>
<path d="M100.162 70.7027H97.2162V73.6487H100.162V70.7027Z" fill="black"/>
<path d="M103.108 70.7027H100.162V73.6487H103.108V70.7027Z" fill="black"/>
<path d="M109 70.7027H106.054V73.6487H109V70.7027Z" fill="black"/>
<path d="M2.94595 73.6487H0V76.5946H2.94595V73.6487Z" fill="black"/>
<path d="M5.89189 73.6487H2.94595V76.5946H5.89189V73.6487Z" fill="black"/>
<path d="M26.5135 73.6487H23.5676V76.5946H26.5135V73.6487Z" fill="black"/>
<path d="M32.4054 73.6487H29.4595V76.5946H32.4054V73.6487Z" fill="black"/>
<path d="M38.2973 73.6487H35.3514L35.3514 76.5946H38.2973V73.6487Z" fill="black"/>
<path d="M44.1892 73.6487H41.2432V76.5946H44.1892L44.1892 73.6487Z" fill="black"/>
<path d="M55.973 73.6487H53.027V76.5946H55.973V73.6487Z" fill="black"/>
<path d="M67.7568 73.6487H64.8108V76.5946H67.7568V73.6487Z" fill="black"/>
<path d="M73.6487 73.6487H70.7027V76.5946H73.6487V73.6487Z" fill="black"/>
<path d="M91.3243 73.6487H88.3784V76.5946H91.3243V73.6487Z" fill="black"/>
<path d="M97.2162 73.6487H94.2703V76.5946H97.2162V73.6487Z" fill="black"/>
<path d="M103.108 73.6487H100.162V76.5946H103.108V73.6487Z" fill="black"/>
<path d="M2.94595 76.5946H0V79.5405H2.94595V76.5946Z" fill="black"/>
<path d="M8.83784 76.5946H5.89189V79.5405H8.83784V76.5946Z" fill="black"/>
<path d="M14.7297 76.5946H11.7838V79.5405H14.7297V76.5946Z" fill="black"/>
<path d="M20.6216 76.5946H17.6757V79.5405H20.6216V76.5946Z" fill="black"/>
<path d="M23.5676 76.5946H20.6216V79.5405H23.5676V76.5946Z" fill="black"/>
<path d="M29.4595 76.5946H26.5135V79.5405H29.4595V76.5946Z" fill="black"/>
<path d="M41.2432 76.5946H38.2973L38.2973 79.5405H41.2432V76.5946Z" fill="black"/>
<path d="M44.1892 76.5946H41.2432V79.5405H44.1892V76.5946Z" fill="black"/>
<path d="M50.0811 76.5946H47.1351V79.5405H50.0811V76.5946Z" fill="black"/>
<path d="M58.9189 76.5946H55.973V79.5405H58.9189V76.5946Z" fill="black"/>
<path d="M64.8108 76.5946H61.8649V79.5405H64.8108V76.5946Z" fill="black"/>
<path d="M73.6487 76.5946H70.7027V79.5405H73.6487V76.5946Z" fill="black"/>
<path d="M76.5946 76.5946H73.6487V79.5405H76.5946V76.5946Z" fill="black"/>
<path d="M82.4865 76.5946H79.5405V79.5405H82.4865V76.5946Z" fill="black"/>
<path d="M88.3784 76.5946H85.4324V79.5405H88.3784V76.5946Z" fill="black"/>
<path d="M100.162 76.5946H97.2162V79.5405H100.162V76.5946Z" fill="black"/>
<path d="M103.108 76.5946H100.162V79.5405H103.108V76.5946Z" fill="black"/>
<path d="M8.83784 79.5405H5.89189V82.4865H8.83784V79.5405Z" fill="black"/>
<path d="M14.7297 79.5405H11.7838V82.4865H14.7297V79.5405Z" fill="black"/>
<path d="M23.5676 79.5405H20.6216V82.4865H23.5676V79.5405Z" fill="black"/>
<path d="M26.5135 79.5405H23.5676V82.4865H26.5135V79.5405Z" fill="black"/>
<path d="M32.4054 79.5405H29.4595V82.4865H32.4054V79.5405Z" fill="black"/>
<path d="M35.3514 79.5405H32.4054V82.4865H35.3514V79.5405Z" fill="black"/>
<path d="M41.2432 79.5405H38.2973V82.4865H41.2432V79.5405Z" fill="black"/>
<path d="M44.1892 79.5405H41.2432V82.4865H44.1892V79.5405Z" fill="black"/>
<path d="M47.1351 79.5405H44.1892V82.4865H47.1351L47.1351 79.5405Z" fill="black"/>
<path d="M55.973 79.5405H53.027V82.4865H55.973V79.5405Z" fill="black"/>
<path d="M64.8108 79.5405H61.8649V82.4865H64.8108V79.5405Z" fill="black"/>
<path d="M67.7568 79.5405H64.8108V82.4865H67.7568V79.5405Z" fill="black"/>
<path d="M73.6487 79.5405H70.7027V82.4865H73.6487V79.5405Z" fill="black"/>
<path d="M79.5405 79.5405H76.5946V82.4865H79.5405V79.5405Z" fill="black"/>
<path d="M82.4865 79.5405H79.5405V82.4865H82.4865V79.5405Z" fill="black"/>
<path d="M91.3243 79.5405H88.3784V82.4865H91.3243V79.5405Z" fill="black"/>
<path d="M103.108 79.5405H100.162V82.4865H103.108V79.5405Z" fill="black"/>
<path d="M106.054 79.5405H103.108V82.4865H106.054V79.5405Z" fill="black"/>
<path d="M109 79.5405H106.054V82.4865H109V79.5405Z" fill="black"/>
<path d="M2.94595 82.4865H0V85.4324H2.94595V82.4865Z" fill="black"/>
<path d="M5.89189 82.4865H2.94595V85.4324H5.89189V82.4865Z" fill="black"/>
<path d="M8.83784 82.4865H5.89189V85.4324H8.83784V82.4865Z" fill="black"/>
<path d="M11.7838 82.4865H8.83784V85.4324H11.7838V82.4865Z" fill="black"/>
<path d="M14.7297 82.4865H11.7838V85.4324H14.7297V82.4865Z" fill="black"/>
<path d="M17.6757 82.4865H14.7297V85.4324H17.6757V82.4865Z" fill="black"/>
<path d="M20.6216 82.4865H17.6757V85.4324H20.6216V82.4865Z" fill="black"/>
<path d="M29.4595 82.4865H26.5135V85.4324H29.4595V82.4865Z" fill="black"/>
<path d="M32.4054 82.4865H29.4595V85.4324H32.4054V82.4865Z" fill="black"/>
<path d="M41.2432 82.4865H38.2973V85.4324H41.2432V82.4865Z" fill="black"/>
<path d="M47.1351 82.4865H44.1892L44.1892 85.4324H47.1351V82.4865Z" fill="black"/>
<path d="M50.0811 82.4865H47.1351V85.4324H50.0811V82.4865Z" fill="black"/>
<path d="M53.027 82.4865H50.0811V85.4324H53.027L53.027 82.4865Z" fill="black"/>
<path d="M58.9189 82.4865H55.973V85.4324H58.9189V82.4865Z" fill="black"/>
<path d="M64.8108 82.4865H61.8649V85.4324H64.8108V82.4865Z" fill="black"/>
<path d="M67.7568 82.4865H64.8108V85.4324H67.7568V82.4865Z" fill="black"/>
<path d="M76.5946 82.4865H73.6487V85.4324H76.5946V82.4865Z" fill="black"/>
<path d="M85.4324 82.4865H82.4865V85.4324H85.4324V82.4865Z" fill="black"/>
<path d="M88.3784 82.4865H85.4324V85.4324H88.3784V82.4865Z" fill="black"/>
<path d="M91.3243 82.4865H88.3784V85.4324H91.3243V82.4865Z" fill="black"/>
<path d="M94.2703 82.4865H91.3243V85.4324H94.2703V82.4865Z" fill="black"/>
<path d="M97.2162 82.4865H94.2703V85.4324H97.2162V82.4865Z" fill="black"/>
<path d="M103.108 82.4865H100.162V85.4324H103.108V82.4865Z" fill="black"/>
<path d="M106.054 82.4865H103.108V85.4324H106.054V82.4865Z" fill="black"/>
<path d="M26.5135 85.4324H23.5676V88.3784H26.5135V85.4324Z" fill="black"/>
<path d="M29.4595 85.4324H26.5135V88.3784H29.4595V85.4324Z" fill="black"/>
<path d="M38.2973 85.4324H35.3514V88.3784H38.2973L38.2973 85.4324Z" fill="black"/>
<path d="M44.1892 85.4324H41.2432V88.3784H44.1892L44.1892 85.4324Z" fill="black"/>
<path d="M61.8649 85.4324H58.9189V88.3784H61.8649V85.4324Z" fill="black"/>
<path d="M67.7568 85.4324H64.8108V88.3784H67.7568V85.4324Z" fill="black"/>
<path d="M70.7027 85.4324H67.7568V88.3784H70.7027V85.4324Z" fill="black"/>
<path d="M73.6487 85.4324H70.7027V88.3784H73.6487V85.4324Z" fill="black"/>
<path d="M76.5946 85.4324H73.6487V88.3784H76.5946V85.4324Z" fill="black"/>
<path d="M82.4865 85.4324H79.5405V88.3784H82.4865V85.4324Z" fill="black"/>
<path d="M85.4324 85.4324H82.4865V88.3784H85.4324V85.4324Z" fill="black"/>
<path d="M97.2162 85.4324H94.2703V88.3784H97.2162V85.4324Z" fill="black"/>
<path d="M103.108 85.4324H100.162V88.3784H103.108V85.4324Z" fill="black"/>
<path d="M106.054 85.4324H103.108V88.3784H106.054V85.4324Z" fill="black"/>
<path d="M109 85.4324H106.054V88.3784H109V85.4324Z" fill="black"/>
<path d="M2.94595 88.3784H0V91.3243H2.94595V88.3784Z" fill="black"/>
<path d="M5.89189 88.3784H2.94595V91.3243H5.89189V88.3784Z" fill="black"/>
<path d="M8.83784 88.3784H5.89189V91.3243H8.83784V88.3784Z" fill="black"/>
<path d="M11.7838 88.3784H8.83784V91.3243H11.7838V88.3784Z" fill="black"/>
<path d="M14.7297 88.3784H11.7838V91.3243H14.7297V88.3784Z" fill="black"/>
<path d="M17.6757 88.3784H14.7297V91.3243H17.6757V88.3784Z" fill="black"/>
<path d="M20.6216 88.3784H17.6757V91.3243H20.6216V88.3784Z" fill="black"/>
<path d="M26.5135 88.3784H23.5676V91.3243H26.5135V88.3784Z" fill="black"/>
<path d="M32.4054 88.3784H29.4595V91.3243H32.4054V88.3784Z" fill="black"/>
<path d="M35.3514 88.3784H32.4054V91.3243H35.3514L35.3514 88.3784Z" fill="black"/>
<path d="M38.2973 88.3784H35.3514L35.3514 91.3243H38.2973V88.3784Z" fill="black"/>
<path d="M47.1351 88.3784H44.1892L44.1892 91.3243H47.1351V88.3784Z" fill="black"/>
<path d="M50.0811 88.3784H47.1351V91.3243H50.0811V88.3784Z" fill="black"/>
<path d="M53.027 88.3784H50.0811V91.3243H53.027V88.3784Z" fill="black"/>
<path d="M55.973 88.3784H53.027V91.3243H55.973V88.3784Z" fill="black"/>
<path d="M58.9189 88.3784H55.973V91.3243H58.9189V88.3784Z" fill="black"/>
<path d="M61.8649 88.3784H58.9189V91.3243H61.8649V88.3784Z" fill="black"/>
<path d="M67.7568 88.3784H64.8108V91.3243H67.7568V88.3784Z" fill="black"/>
<path d="M70.7027 88.3784H67.7568V91.3243H70.7027V88.3784Z" fill="black"/>
<path d="M73.6487 88.3784H70.7027V91.3243H73.6487V88.3784Z" fill="black"/>
<path d="M76.5946 88.3784H73.6487V91.3243H76.5946V88.3784Z" fill="black"/>
<path d="M79.5405 88.3784H76.5946V91.3243H79.5405V88.3784Z" fill="black"/>
<path d="M85.4324 88.3784H82.4865V91.3243H85.4324V88.3784Z" fill="black"/>
<path d="M91.3243 88.3784H88.3784V91.3243H91.3243V88.3784Z" fill="black"/>
<path d="M97.2162 88.3784H94.2703V91.3243H97.2162V88.3784Z" fill="black"/>
<path d="M100.162 88.3784H97.2162V91.3243H100.162V88.3784Z" fill="black"/>
<path d="M103.108 88.3784H100.162V91.3243H103.108V88.3784Z" fill="black"/>
<path d="M2.94595 91.3243H0V94.2703H2.94595V91.3243Z" fill="black"/>
<path d="M20.6216 91.3243H17.6757V94.2703H20.6216V91.3243Z" fill="black"/>
<path d="M26.5135 91.3243H23.5676V94.2703H26.5135V91.3243Z" fill="black"/>
<path d="M29.4595 91.3243H26.5135V94.2703H29.4595V91.3243Z" fill="black"/>
<path d="M38.2973 91.3243H35.3514L35.3514 94.2703H38.2973V91.3243Z" fill="black"/>
<path d="M50.0811 91.3243H47.1351L47.1351 94.2703H50.0811V91.3243Z" fill="black"/>
<path d="M53.027 91.3243H50.0811V94.2703H53.027V91.3243Z" fill="black"/>
<path d="M61.8649 91.3243H58.9189V94.2703H61.8649V91.3243Z" fill="black"/>
<path d="M67.7568 91.3243H64.8108V94.2703H67.7568V91.3243Z" fill="black"/>
<path d="M76.5946 91.3243H73.6487V94.2703H76.5946V91.3243Z" fill="black"/>
<path d="M79.5405 91.3243H76.5946V94.2703H79.5405V91.3243Z" fill="black"/>
<path d="M85.4324 91.3243H82.4865V94.2703H85.4324V91.3243Z" fill="black"/>
<path d="M97.2162 91.3243H94.2703V94.2703H97.2162V91.3243Z" fill="black"/>
<path d="M100.162 91.3243H97.2162V94.2703H100.162V91.3243Z" fill="black"/>
<path d="M103.108 91.3243H100.162V94.2703H103.108V91.3243Z" fill="black"/>
<path d="M106.054 91.3243H103.108V94.2703H106.054V91.3243Z" fill="black"/>
<path d="M109 91.3243H106.054V94.2703H109V91.3243Z" fill="black"/>
<path d="M2.94595 94.2703H0V97.2162H2.94595V94.2703Z" fill="black"/>
<path d="M8.83784 94.2703H5.89189V97.2162H8.83784V94.2703Z" fill="black"/>
<path d="M11.7838 94.2703H8.83784V97.2162H11.7838V94.2703Z" fill="black"/>
<path d="M14.7297 94.2703H11.7838V97.2162H14.7297V94.2703Z" fill="black"/>
<path d="M20.6216 94.2703H17.6757V97.2162H20.6216V94.2703Z" fill="black"/>
<path d="M26.5135 94.2703H23.5676V97.2162H26.5135V94.2703Z" fill="black"/>
<path d="M29.4595 94.2703H26.5135V97.2162H29.4595V94.2703Z" fill="black"/>
<path d="M32.4054 94.2703H29.4595V97.2162H32.4054V94.2703Z" fill="black"/>
<path d="M35.3514 94.2703H32.4054V97.2162H35.3514L35.3514 94.2703Z" fill="black"/>
<path d="M41.2432 94.2703H38.2973L38.2973 97.2162H41.2432V94.2703Z" fill="black"/>
<path d="M47.1351 94.2703H44.1892V97.2162H47.1351L47.1351 94.2703Z" fill="black"/>
<path d="M50.0811 94.2703H47.1351L47.1351 97.2162H50.0811V94.2703Z" fill="black"/>
<path d="M53.027 94.2703H50.0811V97.2162H53.027V94.2703Z" fill="black"/>
<path d="M55.973 94.2703H53.027V97.2162H55.973V94.2703Z" fill="black"/>
<path d="M58.9189 94.2703H55.973V97.2162H58.9189V94.2703Z" fill="black"/>
<path d="M64.8108 94.2703H61.8649V97.2162H64.8108V94.2703Z" fill="black"/>
<path d="M67.7568 94.2703H64.8108V97.2162H67.7568V94.2703Z" fill="black"/>
<path d="M76.5946 94.2703H73.6487V97.2162H76.5946V94.2703Z" fill="black"/>
<path d="M79.5405 94.2703H76.5946V97.2162H79.5405V94.2703Z" fill="black"/>
<path d="M85.4324 94.2703H82.4865V97.2162H85.4324V94.2703Z" fill="black"/>
<path d="M88.3784 94.2703H85.4324V97.2162H88.3784V94.2703Z" fill="black"/>
<path d="M91.3243 94.2703H88.3784V97.2162H91.3243V94.2703Z" fill="black"/>
<path d="M94.2703 94.2703H91.3243V97.2162H94.2703V94.2703Z" fill="black"/>
<path d="M97.2162 94.2703H94.2703V97.2162H97.2162V94.2703Z" fill="black"/>
<path d="M106.054 94.2703H103.108V97.2162H106.054V94.2703Z" fill="black"/>
<path d="M109 94.2703H106.054V97.2162H109V94.2703Z" fill="black"/>
<path d="M2.94595 97.2162H0V100.162H2.94595V97.2162Z" fill="black"/>
<path d="M8.83784 97.2162H5.89189V100.162H8.83784V97.2162Z" fill="black"/>
<path d="M11.7838 97.2162H8.83784V100.162H11.7838V97.2162Z" fill="black"/>
<path d="M14.7297 97.2162H11.7838V100.162H14.7297V97.2162Z" fill="black"/>
<path d="M20.6216 97.2162H17.6757V100.162H20.6216V97.2162Z" fill="black"/>
<path d="M26.5135 97.2162H23.5676V100.162H26.5135V97.2162Z" fill="black"/>
<path d="M41.2432 97.2162H38.2973V100.162H41.2432V97.2162Z" fill="black"/>
<path d="M53.027 97.2162H50.0811L50.0811 100.162H53.027V97.2162Z" fill="black"/>
<path d="M55.973 97.2162H53.027V100.162H55.973V97.2162Z" fill="black"/>
<path d="M64.8108 97.2162H61.8649V100.162H64.8108V97.2162Z" fill="black"/>
<path d="M70.7027 97.2162H67.7568V100.162H70.7027V97.2162Z" fill="black"/>
<path d="M85.4324 97.2162H82.4865V100.162H85.4324V97.2162Z" fill="black"/>
<path d="M91.3243 97.2162H88.3784V100.162H91.3243V97.2162Z" fill="black"/>
<path d="M97.2162 97.2162H94.2703V100.162H97.2162V97.2162Z" fill="black"/>
<path d="M109 97.2162H106.054V100.162H109V97.2162Z" fill="black"/>
<path d="M2.94595 100.162H0V103.108H2.94595V100.162Z" fill="black"/>
<path d="M8.83784 100.162H5.89189V103.108H8.83784V100.162Z" fill="black"/>
<path d="M11.7838 100.162H8.83784V103.108H11.7838V100.162Z" fill="black"/>
<path d="M14.7297 100.162H11.7838V103.108H14.7297V100.162Z" fill="black"/>
<path d="M20.6216 100.162H17.6757V103.108H20.6216V100.162Z" fill="black"/>
<path d="M35.3514 100.162H32.4054V103.108H35.3514V100.162Z" fill="black"/>
<path d="M38.2973 100.162H35.3514V103.108H38.2973L38.2973 100.162Z" fill="black"/>
<path d="M47.1351 100.162H44.1892V103.108H47.1351V100.162Z" fill="black"/>
<path d="M50.0811 100.162H47.1351V103.108H50.0811L50.0811 100.162Z" fill="black"/>
<path d="M53.027 100.162H50.0811L50.0811 103.108H53.027V100.162Z" fill="black"/>
<path d="M55.973 100.162H53.027V103.108H55.973V100.162Z" fill="black"/>
<path d="M58.9189 100.162H55.973V103.108H58.9189V100.162Z" fill="black"/>
<path d="M61.8649 100.162H58.9189V103.108H61.8649V100.162Z" fill="black"/>
<path d="M64.8108 100.162H61.8649V103.108H64.8108V100.162Z" fill="black"/>
<path d="M70.7027 100.162H67.7568V103.108H70.7027V100.162Z" fill="black"/>
<path d="M79.5405 100.162H76.5946V103.108H79.5405V100.162Z" fill="black"/>
<path d="M82.4865 100.162H79.5405V103.108H82.4865V100.162Z" fill="black"/>
<path d="M85.4324 100.162H82.4865V103.108H85.4324V100.162Z" fill="black"/>
<path d="M88.3784 100.162H85.4324V103.108H88.3784V100.162Z" fill="black"/>
<path d="M94.2703 100.162H91.3243V103.108H94.2703V100.162Z" fill="black"/>
<path d="M106.054 100.162H103.108V103.108H106.054V100.162Z" fill="black"/>
<path d="M109 100.162H106.054V103.108H109V100.162Z" fill="black"/>
<path d="M2.94595 103.108H0V106.054H2.94595V103.108Z" fill="black"/>
<path d="M20.6216 103.108H17.6757V106.054H20.6216V103.108Z" fill="black"/>
<path d="M38.2973 103.108H35.3514L35.3514 106.054H38.2973V103.108Z" fill="black"/>
<path d="M47.1351 103.108H44.1892V106.054H47.1351V103.108Z" fill="black"/>
<path d="M58.9189 103.108H55.973V106.054H58.9189V103.108Z" fill="black"/>
<path d="M61.8649 103.108H58.9189V106.054H61.8649V103.108Z" fill="black"/>
<path d="M67.7568 103.108H64.8108V106.054H67.7568V103.108Z" fill="black"/>
<path d="M70.7027 103.108H67.7568V106.054H70.7027V103.108Z" fill="black"/>
<path d="M85.4324 103.108H82.4865V106.054H85.4324V103.108Z" fill="black"/>
<path d="M88.3784 103.108H85.4324V106.054H88.3784V103.108Z" fill="black"/>
<path d="M94.2703 103.108H91.3243V106.054H94.2703V103.108Z" fill="black"/>
<path d="M97.2162 103.108H94.2703V106.054H97.2162V103.108Z" fill="black"/>
<path d="M106.054 103.108H103.108V106.054H106.054V103.108Z" fill="black"/>
<path d="M109 103.108H106.054V106.054H109V103.108Z" fill="black"/>
<path d="M2.94595 106.054H0V109H2.94595V106.054Z" fill="black"/>
<path d="M5.89189 106.054H2.94595V109H5.89189V106.054Z" fill="black"/>
<path d="M8.83784 106.054H5.89189V109H8.83784V106.054Z" fill="black"/>
<path d="M11.7838 106.054H8.83784V109H11.7838V106.054Z" fill="black"/>
<path d="M14.7297 106.054H11.7838V109H14.7297V106.054Z" fill="black"/>
<path d="M17.6757 106.054H14.7297V109H17.6757V106.054Z" fill="black"/>
<path d="M20.6216 106.054H17.6757V109H20.6216V106.054Z" fill="black"/>
<path d="M26.5135 106.054H23.5676V109H26.5135V106.054Z" fill="black"/>
<path d="M35.3514 106.054H32.4054V109H35.3514L35.3514 106.054Z" fill="black"/>
<path d="M41.2432 106.054H38.2973L38.2973 109H41.2432V106.054Z" fill="black"/>
<path d="M47.1351 106.054H44.1892V109H47.1351V106.054Z" fill="black"/>
<path d="M64.8108 106.054H61.8649V109H64.8108V106.054Z" fill="black"/>
<path d="M70.7027 106.054H67.7568V109H70.7027V106.054Z" fill="black"/>
<path d="M73.6487 106.054H70.7027V109H73.6487V106.054Z" fill="black"/>
<path d="M76.5946 106.054H73.6487V109H76.5946V106.054Z" fill="black"/>
<path d="M82.4865 106.054H79.5405V109H82.4865V106.054Z" fill="black"/>
<path d="M88.3784 106.054H85.4324V109H88.3784V106.054Z" fill="black"/>
<path d="M94.2703 106.054H91.3243V109H94.2703V106.054Z" fill="black"/>
<path d="M97.2162 106.054H94.2703V109H97.2162V106.054Z" fill="black"/>
<path d="M100.162 106.054H97.2162V109H100.162V106.054Z" fill="black"/>
<path d="M109 106.054H106.054V109H109V106.054Z" fill="black"/>
</svg>
