<svg width="36" height="32" viewBox="0 0 36 32" fill="none" xmlns="http://www.w3.org/2000/svg">
<path d="M9.698 13L1.76 13L1.76 0.454L4.766 0.454L4.766 10.408L9.698 10.408V13ZM15.3293 13.18C13.8093 13.18 12.6853 12.828 11.9573 12.124C11.2373 11.412 10.8773 10.3 10.8773 8.788C10.8773 7.308 11.2373 6.216 11.9573 5.512C12.6853 4.808 13.8093 4.456 15.3293 4.456C16.8493 4.456 17.9693 4.808 18.6893 5.512C19.4173 6.216 19.7813 7.308 19.7813 8.788C19.7813 10.3 19.4213 11.412 18.7013 12.124C17.9813 12.828 16.8573 13.18 15.3293 13.18ZM12.8813 8.788C12.8813 9.748 13.0693 10.432 13.4453 10.84C13.8213 11.248 14.4493 11.452 15.3293 11.452C16.2093 11.452 16.8373 11.248 17.2133 10.84C17.5893 10.424 17.7773 9.74 17.7773 8.788C17.7773 7.836 17.5893 7.164 17.2133 6.772C16.8453 6.38 16.2173 6.184 15.3293 6.184C14.4413 6.184 13.8093 6.38 13.4333 6.772C13.0653 7.164 12.8813 7.836 12.8813 8.788ZM5.348 26L5.348 24.404H9.836V24.8C9.836 26.296 9.476 27.4 8.756 28.112C8.044 28.824 6.96 29.18 5.504 29.18C3.984 29.18 2.856 28.824 2.12 28.112C1.384 27.392 1.016 26.28 1.016 24.776C1.016 23.312 1.38 22.228 2.108 21.524C2.844 20.812 3.956 20.456 5.444 20.456C6.732 20.456 7.716 20.696 8.396 21.176C9.076 21.648 9.496 22.376 9.656 23.36L7.616 23.348C7.504 22.932 7.28 22.636 6.944 22.46C6.616 22.276 6.128 22.184 5.48 22.184C4.608 22.184 3.98 22.384 3.596 22.784C3.212 23.184 3.02 23.848 3.02 24.776C3.02 25.744 3.208 26.432 3.584 26.84C3.968 27.248 4.604 27.452 5.492 27.452C6.964 27.452 7.752 26.968 7.856 26H5.348ZM17.9012 29.27C15.6212 29.27 13.9352 28.742 12.8432 27.686C11.7632 26.618 11.2232 24.95 11.2232 22.682C11.2232 20.462 11.7632 18.824 12.8432 17.768C13.9352 16.712 15.6212 16.184 17.9012 16.184C20.1812 16.184 21.8612 16.712 22.9412 17.768C24.0332 18.824 24.5792 20.462 24.5792 22.682C24.5792 24.95 24.0392 26.618 22.9592 27.686C21.8792 28.742 20.1932 29.27 17.9012 29.27ZM14.2292 22.682C14.2292 24.122 14.5112 25.148 15.0752 25.76C15.6392 26.372 16.5812 26.678 17.9012 26.678C19.2212 26.678 20.1632 26.372 20.7272 25.76C21.2912 25.136 21.5732 24.11 21.5732 22.682C21.5732 21.254 21.2912 20.246 20.7272 19.658C20.1752 19.07 19.2332 18.776 17.9012 18.776C16.5692 18.776 15.6212 19.07 15.0572 19.658C14.5052 20.246 14.2292 21.254 14.2292 22.682Z" fill="#027FFF"/>
<path d="M33.985 2.68L33.985 3.52L31.35 2.44L30.5 2.44L30.5 1.605L31.34 1.605L33.985 0.525L33.985 1.355L32.37 1.97L32.37 2.075L33.985 2.68ZM30.425 5.46551C30.425 4.83217 30.5717 4.36384 30.865 4.06051C31.1617 3.76051 31.625 3.61051 32.255 3.61051C32.8717 3.61051 33.3267 3.76051 33.62 4.06051C33.9133 4.36384 34.06 4.83217 34.06 5.46551C34.06 6.09884 33.9133 6.56551 33.62 6.86551C33.3267 7.16884 32.8717 7.32051 32.255 7.32051C31.625 7.32051 31.1617 7.17051 30.865 6.87051C30.5717 6.57051 30.425 6.10217 30.425 5.46551ZM32.255 4.44551C31.855 4.44551 31.57 4.52384 31.4 4.68051C31.23 4.83717 31.145 5.09884 31.145 5.46551C31.145 5.83217 31.23 6.09384 31.4 6.25051C31.5733 6.40717 31.8583 6.48551 32.255 6.48551C32.6517 6.48551 32.9317 6.40717 33.095 6.25051C33.2583 6.09717 33.34 5.83551 33.34 5.46551C33.34 5.09551 33.2583 4.83217 33.095 4.67551C32.9317 4.52217 32.6517 4.44551 32.255 4.44551ZM30.425 9.24113C30.425 8.76447 30.5317 8.4128 30.745 8.18613C30.9583 7.9628 31.2933 7.85113 31.75 7.85113L33.985 7.85113L33.985 8.68613L31.75 8.68613C31.5333 8.68613 31.3783 8.7278 31.285 8.81113C31.1917 8.8978 31.145 9.04113 31.145 9.24113C31.145 9.43113 31.1933 9.56947 31.29 9.65613C31.3867 9.74613 31.54 9.79113 31.75 9.79113L33.985 9.79113L33.985 10.6261L31.75 10.6261C31.2967 10.6261 30.9617 10.5128 30.745 10.2861C30.5317 10.0595 30.425 9.71113 30.425 9.24113ZM31.645 13.2346L30.5 14.1946L30.5 13.2246L31.56 12.3596L31.56 12.1046L30.5 12.1046L30.5 11.2846L33.985 11.2846L33.985 12.5846C33.985 13.5279 33.5867 13.9996 32.79 13.9996C32.1867 13.9996 31.805 13.7446 31.645 13.2346ZM33.295 12.5846L33.295 12.1046L32.24 12.1046L32.24 12.5846C32.24 12.7946 32.2833 12.9462 32.37 13.0396C32.4567 13.1329 32.5967 13.1796 32.79 13.1796C32.97 13.1796 33.0983 13.1329 33.175 13.0396C33.255 12.9462 33.295 12.7946 33.295 12.5846ZM30.5 18.1527L30.5 15.9477L33.985 15.9477L33.985 16.7827L31.22 16.7827L31.22 18.1527L30.5 18.1527ZM30.425 20.3337C30.425 19.7003 30.5717 19.232 30.865 18.9287C31.1617 18.6287 31.625 18.4787 32.255 18.4787C32.8717 18.4787 33.3267 18.6287 33.62 18.9287C33.9133 19.232 34.06 19.7003 34.06 20.3337C34.06 20.967 33.9133 21.4337 33.62 21.7337C33.3267 22.037 32.8717 22.1887 32.255 22.1887C31.625 22.1887 31.1617 22.0387 30.865 21.7387C30.5717 21.4387 30.425 20.9703 30.425 20.3337ZM32.255 19.3137C31.855 19.3137 31.57 19.392 31.4 19.5487C31.23 19.7053 31.145 19.967 31.145 20.3337C31.145 20.7003 31.23 20.962 31.4 21.1187C31.5733 21.2753 31.8583 21.3537 32.255 21.3537C32.6517 21.3537 32.9317 21.2753 33.095 21.1187C33.2583 20.9653 33.34 20.7037 33.34 20.3337C33.34 19.9637 33.2583 19.7003 33.095 19.5437C32.9317 19.3903 32.6517 19.3137 32.255 19.3137ZM31.75 24.4243L32.415 24.4243L32.415 26.2943L32.25 26.2943C31.6267 26.2943 31.1667 26.1443 30.87 25.8443C30.5733 25.5476 30.425 25.096 30.425 24.4893C30.425 23.856 30.5733 23.386 30.87 23.0793C31.17 22.7726 31.6333 22.6193 32.26 22.6193C32.87 22.6193 33.3217 22.771 33.615 23.0743C33.9117 23.381 34.06 23.8443 34.06 24.4643C34.06 25.001 33.96 25.411 33.76 25.6943C33.5633 25.9776 33.26 26.1526 32.85 26.2193L32.855 25.3693C33.0283 25.3226 33.1517 25.2293 33.225 25.0893C33.3017 24.9526 33.34 24.7493 33.34 24.4793C33.34 24.116 33.2567 23.8543 33.09 23.6943C32.9233 23.5343 32.6467 23.4543 32.26 23.4543C31.8567 23.4543 31.57 23.5326 31.4 23.6893C31.23 23.8493 31.145 24.1143 31.145 24.4843C31.145 25.0976 31.3467 25.426 31.75 25.4693L31.75 24.4243ZM30.425 28.6198C30.425 27.9865 30.5717 27.5181 30.865 27.2148C31.1617 26.9148 31.625 26.7648 32.255 26.7648C32.8717 26.7648 33.3267 26.9148 33.62 27.2148C33.9133 27.5181 34.06 27.9865 34.06 28.6198C34.06 29.2531 33.9133 29.7198 33.62 30.0198C33.3267 30.3231 32.8717 30.4748 32.255 30.4748C31.625 30.4748 31.1617 30.3248 30.865 30.0248C30.5717 29.7248 30.425 29.2565 30.425 28.6198ZM32.255 27.5998C31.855 27.5998 31.57 27.6781 31.4 27.8348C31.23 27.9915 31.145 28.2531 31.145 28.6198C31.145 28.9865 31.23 29.2481 31.4 29.4048C31.5733 29.5615 31.8583 29.6398 32.255 29.6398C32.6517 29.6398 32.9317 29.5615 33.095 29.4048C33.2583 29.2515 33.34 28.9898 33.34 28.6198C33.34 28.2498 33.2583 27.9865 33.095 27.8298C32.9317 27.6765 32.6517 27.5998 32.255 27.5998Z" fill="#027FFF"/>
</svg>
