<svg width="16" height="16" viewBox="0 0 16 16" fill="none" xmlns="http://www.w3.org/2000/svg">
<path d="M7.66634 14.4987C3.89967 14.4987 0.833008 11.432 0.833008 7.66536C0.833008 3.8987 3.89967 0.832031 7.66634 0.832031C11.433 0.832031 14.4997 3.8987 14.4997 7.66536C14.4997 11.432 11.433 14.4987 7.66634 14.4987ZM7.66634 1.83203C4.44634 1.83203 1.83301 4.45203 1.83301 7.66536C1.83301 10.8787 4.44634 13.4987 7.66634 13.4987C10.8863 13.4987 13.4997 10.8787 13.4997 7.66536C13.4997 4.45203 10.8863 1.83203 7.66634 1.83203Z" fill="#8E959C"/>
<path d="M14.6666 15.1676C14.54 15.1676 14.4133 15.1209 14.3133 15.0209L12.98 13.6876C12.7866 13.4943 12.7866 13.1743 12.98 12.9809C13.1733 12.7876 13.4933 12.7876 13.6866 12.9809L15.02 14.3143C15.2133 14.5076 15.2133 14.8276 15.02 15.0209C14.92 15.1209 14.7933 15.1676 14.6666 15.1676Z" fill="#8E959C"/>
</svg>
