<svg width="15" height="19" viewBox="0 0 15 19" fill="none" xmlns="http://www.w3.org/2000/svg">
<path fill-rule="evenodd" clip-rule="evenodd" d="M7.49968 0.667969C5.19849 0.667969 3.33301 2.53345 3.33301 4.83464C3.33301 7.13582 5.19849 9.0013 7.49968 9.0013C9.80086 9.0013 11.6663 7.13582 11.6663 4.83464C11.6663 2.53345 9.80086 0.667969 7.49968 0.667969ZM4.99968 4.83464C4.99968 3.45392 6.11896 2.33464 7.49968 2.33464C8.88039 2.33464 9.99967 3.45392 9.99967 4.83464C9.99967 6.21535 8.88039 7.33464 7.49968 7.33464C6.11896 7.33464 4.99968 6.21535 4.99968 4.83464Z" fill="#D3DBE3"/>
<path fill-rule="evenodd" clip-rule="evenodd" d="M7.49967 18.168C6.21592 18.168 4.35786 17.8765 2.96253 17.2658C2.27753 16.966 1.58088 16.5369 1.17614 15.9158C0.963272 15.5892 0.828702 15.2044 0.833113 14.7748C0.837483 14.3492 0.97754 13.9414 1.21294 13.562C2.3541 11.7227 4.68867 9.83463 7.49967 9.83463C10.3107 9.83463 12.6452 11.7227 13.7864 13.562C14.0218 13.9414 14.1619 14.3492 14.1662 14.7748C14.1706 15.2044 14.0361 15.5892 13.8232 15.9158C13.4185 16.5369 12.7218 16.966 12.0368 17.2658C10.6415 17.8765 8.78342 18.168 7.49967 18.168ZM2.62917 14.4406C2.51944 14.6175 2.50032 14.7311 2.49969 14.7919C2.49911 14.8488 2.51373 14.9157 2.57248 15.0059C2.71096 15.2184 3.04723 15.4836 3.63078 15.7389C4.77254 16.2387 6.39404 16.5013 7.49967 16.5013C8.60531 16.5013 10.2268 16.2387 11.3686 15.7389C11.9521 15.4836 12.2884 15.2184 12.4269 15.0059C12.4856 14.9157 12.5002 14.8488 12.4997 14.7919C12.499 14.7311 12.4799 14.6175 12.3702 14.4406C11.4351 12.9334 9.56995 11.5013 7.49967 11.5013C5.42939 11.5013 3.56429 12.9334 2.62917 14.4406Z" fill="#D3DBE3"/>
</svg>
