<svg width="20" height="15" viewBox="0 0 20 15" fill="none" xmlns="http://www.w3.org/2000/svg">
<path fill-rule="evenodd" clip-rule="evenodd" d="M9.99986 0.167969C8.15891 0.167969 6.66653 1.66035 6.66653 3.5013C6.66653 5.34225 8.15891 6.83464 9.99986 6.83464C11.8408 6.83464 13.3332 5.34225 13.3332 3.5013C13.3332 1.66035 11.8408 0.167969 9.99986 0.167969ZM8.33319 3.5013C8.33319 2.58083 9.07938 1.83464 9.99986 1.83464C10.9203 1.83464 11.6665 2.58083 11.6665 3.5013C11.6665 4.42178 10.9203 5.16797 9.99986 5.16797C9.07938 5.16797 8.33319 4.42178 8.33319 3.5013Z" fill="#D3DBE3"/>
<path fill-rule="evenodd" clip-rule="evenodd" d="M9.99986 14.3346C9.05245 14.3346 7.68642 14.1107 6.64973 13.6343C6.14119 13.4006 5.59554 13.054 5.27369 12.5354C5.10378 12.2616 4.99643 11.9389 4.99994 11.5797C5.00342 11.224 5.11499 10.8866 5.29768 10.5774C6.13308 9.16358 7.86615 7.66797 9.99986 7.66797C12.1336 7.66797 13.8666 9.16358 14.702 10.5774C14.8847 10.8866 14.9963 11.224 14.9998 11.5797C15.0033 11.9389 14.8959 12.2616 14.726 12.5354C14.4042 13.054 13.8585 13.4006 13.35 13.6343C12.3133 14.1107 10.9473 14.3346 9.99986 14.3346ZM6.73257 11.4252C6.66875 11.5332 6.66662 11.5869 6.66653 11.596C6.66646 11.602 6.66625 11.6186 6.68979 11.6565C6.75595 11.7631 6.94811 11.9372 7.34568 12.1199C8.12119 12.4763 9.24055 12.668 9.99986 12.668C10.7592 12.668 11.8785 12.4763 12.654 12.1199C13.0516 11.9372 13.2438 11.7631 13.3099 11.6565C13.3335 11.6186 13.3333 11.6024 13.3332 11.5964C13.3331 11.5873 13.331 11.5332 13.2671 11.4252C12.6195 10.3291 11.3528 9.33464 9.99986 9.33464C8.64693 9.33464 7.38025 10.3291 6.73257 11.4252Z" fill="#D3DBE3"/>
<path fill-rule="evenodd" clip-rule="evenodd" d="M2.08319 6.0013C2.08319 4.62059 3.20248 3.5013 4.58319 3.5013C5.9639 3.5013 7.08319 4.62059 7.08319 6.0013C7.08319 7.38202 5.9639 8.5013 4.58319 8.5013C3.20248 8.5013 2.08319 7.38202 2.08319 6.0013ZM4.58319 5.16797C4.12295 5.16797 3.74986 5.54107 3.74986 6.0013C3.74986 6.46154 4.12295 6.83464 4.58319 6.83464C5.04343 6.83464 5.41653 6.46154 5.41653 6.0013C5.41653 5.54107 5.04343 5.16797 4.58319 5.16797Z" fill="#D3DBE3"/>
<path d="M2.41297 12.2051C2.20835 12.6174 1.70828 12.7857 1.29603 12.5811C0.883782 12.3765 0.715463 11.8764 0.920082 11.4641C1.22624 10.8473 1.68963 10.228 2.27257 9.75416C2.85573 9.28012 3.603 8.91797 4.45584 8.91797C4.91607 8.91797 5.28917 9.29107 5.28917 9.7513C5.28917 10.2115 4.91607 10.5846 4.45584 10.5846C4.08835 10.5846 3.70051 10.7413 3.32386 11.0474C2.94699 11.3538 2.62589 11.7762 2.41297 12.2051Z" fill="#D3DBE3"/>
<path fill-rule="evenodd" clip-rule="evenodd" d="M13.1749 6.0013C13.1749 4.62059 14.2942 3.5013 15.6749 3.5013C17.0556 3.5013 18.1749 4.62059 18.1749 6.0013C18.1749 7.38202 17.0556 8.5013 15.6749 8.5013C14.2942 8.5013 13.1749 7.38202 13.1749 6.0013ZM15.6749 5.16797C15.2147 5.16797 14.8416 5.54107 14.8416 6.0013C14.8416 6.46154 15.2147 6.83464 15.6749 6.83464C16.1351 6.83464 16.5082 6.46154 16.5082 6.0013C16.5082 5.54107 16.1351 5.16797 15.6749 5.16797Z" fill="#D3DBE3"/>
<path d="M19.0833 11.4641C19.2879 11.8764 19.1196 12.3765 18.7074 12.5811C18.2951 12.7857 17.795 12.6174 17.5904 12.2051C17.3775 11.7762 17.0564 11.3538 16.6795 11.0474C16.3029 10.7413 15.915 10.5846 15.5475 10.5846C15.0873 10.5846 14.7142 10.2115 14.7142 9.7513C14.7142 9.29107 15.0873 8.91797 15.5475 8.91797C16.4004 8.91797 17.1477 9.28011 17.7308 9.75416C18.3138 10.228 18.7772 10.8473 19.0833 11.4641Z" fill="#D3DBE3"/>
</svg>
